<svg width="200" height="369" xmlns="http://www.w3.org/2000/svg">
 <defs>
  <linearGradient spreadMethod="pad" y2="0" x2="1" y1="0" x1="0" id="svg_5">
   <stop offset="1" stop-color="#fc0000"/>
   <stop offset="1" stop-color="#03ffff"/>
  </linearGradient>
 </defs>
 <metadata id="metadata7">image/svg+xml</metadata>
 <g>
  <title>background</title>
  <rect fill="none" id="canvas_background" height="402" width="582" y="-1" x="-1"/>
 </g>
 <g>
  <title>Layer 1</title>
  <path d="m152.18669,141.35136c-0.19881,0 -0.4397,-0.14195 -0.99403,-0.5964c-0.43486,-0.35649 -0.7341,-0.8322 -0.99404,-1.19284c-0.16439,-0.22809 -0.32153,-0.41275 -0.39761,-0.59642c-0.10759,-0.25975 -0.21394,-0.32153 -0.39761,-0.39762c-0.25975,-0.10759 -0.19881,-0.39761 -0.19881,-0.39761c0,0 -0.19881,0 -0.19881,0c0,-0.19881 0,-0.19881 0,-0.19881c0,0 -0.05822,0.14058 -0.1988,0c-0.14058,-0.14057 -0.25704,-0.25703 -0.39762,-0.39761c-0.14058,-0.14058 0,-0.19881 -0.1988,-0.19881c0,0 0,0 0,0c0,0 -0.19881,0 -0.19881,0.19881c0,0 0,0 0,0.19881c0,0 0,0 0,0.1988c0,0 0,0.19881 0,0.19881c0,0 0,0.19881 0,0.19881c-0.19879,0 -0.19879,0.39761 -0.19879,0.39761c0,0 0,0 0,0c-0.19881,0 -0.25704,0.05823 -0.39762,0.19881c-0.14057,0.14058 -0.1988,0.19881 -0.1988,0.19881c0,0 0,0.1988 0,0.1988c0,0 0,0.19881 -0.19881,0.19881c0,0 0,0.19881 0,0.19881c0,0.1988 -0.09122,0.13786 -0.19881,0.39761c-0.07608,0.18367 0,0.19881 0,0.19881c0,0.1988 0.14058,0.25703 0,0.39761c-0.14058,0.14058 -0.1988,0.19881 -0.1988,0.19881c0,0.1988 0,0.39759 0,0.39759c0,0.19881 0,0.19881 0,0.19881c0,0.19881 0,0.19881 -0.19881,0.39761c0,0 0,0.19881 0,0.39762c0,0.1988 0,0.39761 0,0.59642c0,0.19881 -0.05823,0.25703 -0.19881,0.39761c-0.14058,0.14058 0,0.39762 0,0.59642c0,0.19881 0.14058,0.25704 0,0.39762c-0.14058,0.14057 -0.1988,0 -0.1988,0.1988c0,0 0,0.19881 0,0.39762c0,0.1988 0,0.1988 0,0.39761c0,0 0,0 0,0.19881c0,0.1988 0,0.1988 0,0.1988c0,0 0,0.19881 0,0.19881c-0.19881,0.39761 -0.19881,0.39761 -0.19881,0.59642c0,0.19881 0.14058,0.25703 0,0.39761c-0.14058,0.14058 -0.19881,0.19881 -0.19881,0.19881c0,0.19881 0,0.39761 0,0.59642c0,0 0,0.19881 0,0.19881c0,0.1988 0,0.1988 -0.1988,0.39761c0,0 0,0 0,0.19881c0,0 0,0 0,0.1988c0,0 0,0.19881 0,0.19881c0,0.19881 0,0.19881 0,0.19881c0,0 0,0.1988 0,0.1988c0,0 0,0.19881 0,0.19881c0,0 0.05822,0.05823 0.1988,0.19881c0.14058,0.14058 0,0.1988 0.19881,0.39761c0,0 0.19881,0.19881 0.39761,0.3976c0,0 0,0.19881 0,0.19881c0.19881,0.1988 0.19881,0.1988 0.19881,0.39761c0,0 0.19881,0.19881 0.19881,0.19881c0,0.1988 0.1988,0.1988 0.1988,0.39761c0,0 0,0 0,0.19881c0,0 0.19881,0.1988 0.19881,0.1988c0,0.19881 0.19881,0.39762 0.19881,0.39762c0,0.1988 0,0.1988 0.1988,0.39761c0,0 0,0.19881 0.19881,0.39761c0,0 0.05823,0.05823 0.19881,0.19881c0.14058,0.14058 0.19879,0.39761 0.19879,0.39761c0,0.19881 0.19881,0.39762 0.19881,0.39762c0,0.19881 0,0.19881 0,0.19881c0,0 0.1988,0 0.1988,0.1988c0,0.19881 0.09122,0.13787 0.19881,0.39762c0.07608,0.18367 0,0.1988 0,0.39761c0,0 0.19881,0.19881 0.19881,0.19881c0,0.1988 0,0.39761 0.1988,0.59642c0,0 0.05823,0.05822 0.19881,0.1988c0.14058,0.14058 0.05823,0.25704 0.19881,0.39762c0.14058,0.14058 0.12272,0.41275 0.1988,0.59642c0.10759,0.25975 0.19881,0.39761 0.39762,0.59642c0.1988,0.1988 0.13768,0.43458 0.39761,0.79522c0.1644,0.22809 0.39761,0.59642 0.59642,0.99402c0.19881,0.39762 0.33649,0.63339 0.59642,0.99404c0.1644,0.22808 0.2285,0.29309 0.39761,0.39761c0.37816,0.23372 0.42731,0.6907 0.59642,0.79523c0.37816,0.23372 0.43203,0.76594 0.59643,0.99403c0.25993,0.36064 0.1988,0.59642 0.39761,0.79523c0.19881,0.1988 0.25703,0.25703 0.39761,0.39761c0.14058,0.14058 0,0.19881 0,0.19881c0.79523,1.78926 0.88645,1.92712 0.99404,2.18687c0.07608,0.18367 0.15313,0.40294 0.1988,0.59642c0.10215,0.43265 0.29003,0.73429 0.39762,0.99404c0.07608,0.18367 0.09121,0.13786 0.1988,0.39761c0.07608,0.18367 0.12273,0.41274 0.19881,0.59641c0.10759,0.25975 0.45584,0.25703 0.59642,0.39761c0.14058,0.14058 0.19881,0.39761 0.39761,0.59642c0.1988,0.19881 0.13785,0.29002 0.3976,0.39761c0.18367,0.07608 0.19881,0.19881 0.39762,0.19881c0,0 0.05822,0.05823 0.1988,0.19881c0.14058,0.14058 0.19881,0.1988 0.19881,0.1988c0,0.19881 0.19881,0.19881 0.19881,0.19881c0,0.19881 0.1988,0.19881 0.1988,0.39761c0,0 0.19881,0.19881 0.19881,0.19881c0,0.19881 0.05823,0.25703 0.19881,0.39761c0.14058,0.14058 0.13786,0.29003 0.39761,0.39762c0.18367,0.07608 0.39761,0.1988 0.39761,0.1988c0.19881,0.19881 0.41275,0.32154 0.59642,0.39762c0.25975,0.10759 0.19881,0.1988 0.39762,0.39761c0,0 0.1988,0.19881 0.1988,0.19881c0.19881,0 0.39762,0.1988 0.39762,0.1988c0.1988,0.19881 0.1988,0.19881 0.39761,0.39762c0,0 0.05823,0.05823 0.19881,0.1988c0.14058,0.14058 0.09121,0.13787 0.1988,0.39762c0.07608,0.18367 0.05823,0.25703 0.19881,0.39761c0.14058,0.14058 -0.07608,0.21395 0,0.39762c0.10759,0.25975 0.19881,0.1988 0.19881,0.39761c0,0.19881 0.1988,0.19881 0.1988,0.39761c0,0 -0.14057,0.05823 0,0.19881c0.14058,0.14058 0.19881,0 0.19881,0c0,0.19881 0,0.19881 0.19881,0.19881c0,0 0.1988,0.1988 0.1988,0.1988c0.19881,0 0.39762,0.19881 0.39762,0.19881c0.19881,0 0.39761,0.19881 0.59642,0.19881c0,0 0.19881,0.1988 0.19881,0.1988c0.1988,0 0.1988,0 0.39761,0c0,0 0.05824,0.05823 0.19881,0.19879c0.14057,0.14058 0.39761,0 0.39761,0c0.19881,0 0.19881,0 0.39761,0c0.19881,0 0.19881,0 0.3976,0c0.19881,0 0.39761,0 0.39761,0c0.19881,0 0.19881,0 0.39762,0c0.1988,0 0.1988,0 0.39761,0c0,0 0.19881,0 0.19881,0c0,-0.19879 0.13786,-0.29 0.39761,-0.39759c0.18367,-0.07608 0.19881,0 0.39762,0c0,0 0.05822,-0.05823 0.1988,-0.19881c0.14058,-0.14058 0.04665,-0.22908 0.19881,-0.59642c0.10759,-0.25975 0.39761,-0.39761 0.59642,-0.59642c0.19881,-0.19881 0.39761,-0.39761 0.59642,-0.59642c0,0 0.19881,-0.19881 0.19881,-0.19881c0.1988,-0.19881 0.1988,-0.39761 0.39761,-0.59642c0.19881,-0.19881 0.32153,-0.21394 0.39761,-0.39761c0.10759,-0.25975 0.33667,-0.29003 0.59642,-0.39762c0.18367,-0.07608 0.41275,-0.12272 0.59642,-0.1988c0.25975,-0.10759 0.39762,-0.19881 0.79523,-0.39762c0,0 0.33667,-0.09121 0.59642,-0.1988c0.18367,-0.07608 0.39761,0 0.39761,0c0.19881,-0.19881 0.19881,-0.19881 0.39762,-0.19881c0,0 0,0 0,-0.19881c0,0 0,0 0,0c0,-0.1988 0.07608,-0.21394 0,-0.39761c-0.10759,-0.25975 -0.29003,-0.33667 -0.39762,-0.59642c-0.07608,-0.18367 -0.1988,-0.39761 -0.1988,-0.59642c0,0 -0.19881,-0.39761 -0.19881,-0.39761c0,-0.19881 -0.12273,-0.41275 -0.19881,-0.59642c-0.10759,-0.25975 -0.12272,-0.41275 -0.1988,-0.59642c-0.10759,-0.25975 -0.29003,-0.33667 -0.39762,-0.59642c-0.07608,-0.18367 0,-0.3976 0,-0.59641c0,-0.19881 -0.1988,-0.39761 -0.1988,-0.59642c0,-0.19881 -0.19881,-0.39761 -0.19881,-0.59642c0,-0.19881 -0.19881,-0.59642 -0.19881,-0.79523c0,-0.39761 -0.1988,-0.99403 -0.1988,-1.39164c0,-0.39762 -0.19881,-0.59643 -0.19881,-0.79523c0,0 0,0 0,-0.19881c0,-0.19881 -0.09122,-0.33667 -0.19881,-0.59642c-0.07608,-0.18367 0,-0.39761 -0.1988,-0.59642c0,0 0,-0.19881 0,-0.19881c-0.19881,-0.1988 -0.19881,-0.1988 -0.19881,-0.1988c0,-0.19881 -0.09122,-0.13787 -0.19881,-0.39762c-0.07608,-0.18367 -0.1988,-0.39761 -0.1988,-0.59642c0,-0.1988 -0.19881,-0.39761 -0.19881,-0.59642c0,-0.1988 0.07608,-0.41275 0,-0.59642c-0.10759,-0.25975 -0.19881,-0.1988 -0.19881,-0.39761c0,-0.19881 0,-0.19881 0,-0.19881c-0.1988,-0.19879 -0.1988,-0.3976 -0.1988,-0.3976c0,-0.1988 -0.19881,-0.39761 -0.19881,-0.59642c0,0 0.07608,-0.21394 0,-0.39761c-0.10759,-0.25975 -0.10745,-0.40825 -0.19881,-0.79523c-0.10214,-0.43264 -0.04664,-0.42788 -0.1988,-0.79522c-0.10759,-0.25975 -0.19881,-0.39762 -0.19881,-0.59642c0,0 -0.05823,-0.05823 -0.19881,-0.19881c-0.14058,-0.14058 0.28116,-0.31526 0,-0.59642c-0.14058,-0.14058 -0.1988,-0.39761 -0.39761,-0.59642c0,0 0,-0.19881 0,-0.19881c0,-0.1988 -0.19881,0 0,0c0.19881,0 -0.29002,-0.53547 -0.39761,-0.79523c-0.15217,-0.36734 -0.09667,-0.56138 -0.19881,-0.99403c-0.04567,-0.19348 -0.19881,-0.39761 -0.19881,-0.39761c0,-0.19881 -0.1988,-0.59642 -0.1988,-0.59642c0,-0.19881 -0.19881,-0.19881 -0.19881,-0.39762c0,0 0,-0.1988 -0.19881,-0.1988c0,0 0.07608,-0.21395 0,-0.39762c-0.10759,-0.25975 -0.12272,-0.21394 -0.19881,-0.39761c-0.10758,-0.25974 -0.1988,-0.3976 -0.39761,-0.3976c0,0 0,-0.19881 0,-0.19881c-0.19881,-0.1988 -0.19881,-0.39761 -0.19881,-0.59642c0,-0.1988 -0.1988,-0.1988 -0.1988,-0.39761c0,-0.19881 -0.09122,-0.13786 -0.19881,-0.39761c-0.15216,-0.36734 -0.12271,-0.61156 -0.19879,-0.79523c-0.10759,-0.25975 -0.05823,-0.45584 -0.19881,-0.59642c-0.14058,-0.14058 -0.29002,-0.13786 -0.39761,-0.39761c-0.07608,-0.18367 -0.15703,-0.61202 -0.39761,-1.19284c-0.17012,-0.41071 -0.32154,-0.81037 -0.39762,-0.99404c-0.10759,-0.25975 -0.1988,-0.1988 -0.1988,-0.1988c0,-0.19881 0.06369,-0.40274 0,-0.79523c-0.10071,-0.62056 -0.35195,-0.99936 -0.39762,-1.19284c-0.10214,-0.43265 -0.39761,-0.59642 -0.39761,-0.79523c0,-0.19881 -0.05823,-0.45582 -0.19881,-0.5964c-0.14058,-0.14058 -0.19881,-0.19881 -0.19881,-0.39762c0,0 -0.1988,-0.1988 -0.1988,-0.39761c0,-0.19881 -0.19881,-0.19881 -0.19881,-0.39761c0,0 -0.09122,-0.13787 -0.19881,-0.39762c-0.07608,-0.18367 -0.1988,-0.39761 -0.1988,-0.59642c0,-0.39761 -0.09122,-0.53548 -0.19881,-0.79523c-0.07608,-0.18367 -0.19881,-0.39761 -0.19881,-0.59642c0,-0.1988 -0.12272,-0.61155 -0.1988,-0.79522c-0.10759,-0.25975 -0.12273,-0.41275 -0.19881,-0.59642c-0.10759,-0.25975 -0.19881,-0.19881 -0.19881,-0.19881c0,-0.19881 -0.15702,-0.61201 -0.39761,-1.19284c-0.17012,-0.41071 -0.49428,-0.76019 -0.59642,-1.19284c-0.04567,-0.19348 -0.05823,-0.45584 -0.19881,-0.59642c-0.14058,-0.14058 -0.1988,-0.19881 -0.1988,-0.19881c-0.19881,0 -0.19881,-0.1988 -0.19881,-0.1988c-0.19881,-0.19881 -0.12273,-0.41274 -0.19881,-0.59641c-0.10759,-0.25975 -0.1988,-0.19881 -0.39761,-0.39761c0,0 -0.09122,-0.13787 -0.19881,-0.39762c-0.07608,-0.18367 0.14058,-0.25703 0,-0.39761c-0.14058,-0.14058 -0.39761,-0.19881 -0.39761,-0.39761c0,0 -0.09122,-0.13787 -0.19881,-0.39762c-0.07608,-0.18367 0,-0.1988 0,-0.1988c0,-0.19881 -0.15313,-0.20414 -0.1988,-0.39762c-0.10215,-0.43265 -0.29003,-0.53547 -0.39762,-0.79522c-0.15216,-0.36735 0,-0.39762 0,-0.39762c0,-0.19881 0.02432,-0.41073 -0.1988,-0.79523c-0.35979,-0.61997 -0.79522,-1.19284 -0.79522,-1.59045c0,-0.19881 -0.04664,-0.22907 -0.1988,-0.59641c-0.10759,-0.25975 -0.19881,-0.39762 -0.19881,-0.39762c-0.19881,-0.1988 -0.48883,-0.33667 -0.59642,-0.59642c-0.07608,-0.18367 -0.19881,-0.1988 -0.39761,-0.39761c-0.19881,-0.19881 -0.19881,-0.39761 -0.39762,-0.59642c-0.39761,-0.39761 -0.53529,-0.6334 -0.79522,-0.99403c-0.1644,-0.22809 -0.48883,-0.33667 -0.59642,-0.59642c-0.15217,-0.36735 -0.19881,-0.59642 -0.39762,-0.99403c-0.1988,-0.39761 -0.49428,-0.56138 -0.59642,-0.99403c-0.04567,-0.19349 -0.12272,-0.41275 -0.19881,-0.59642c-0.10758,-0.25975 -0.29002,-0.33667 -0.39761,-0.59642c-0.07608,-0.18367 -0.19881,-0.19881 -0.19881,-0.39762c0,0 -0.1988,0 -0.1988,0c0,0 0,0 -0.19881,0c0,0 0,0 0,0.19881c0,0 0,0.19881 0,0.19881c0,0.1988 0,0.59642 0,0.99403c0,0.19881 0,0.39761 0,0.79523c0,0 0,0.1988 0,0.39761c0,0.39761 0,0.39761 0,0.59641c0,0 0,0.19881 0,0.19881c0,0.19881 0,0.19881 0,0.39761c0,0.19881 -0.19881,0.19881 -0.19881,0.39762c0,0.1988 0,0.39761 0,0.59642c0,0 -0.1988,0.1988 -0.1988,0.39761c0,0.19881 0,0.39761 0,0.59642c0,0.19881 0,0.39761 0,0.59642c0,0.19881 0,0.39761 0,0.79523c0,0.1988 0.09121,0.53547 0.1988,0.79522c0.15216,0.36734 -0.08235,0.91168 0.19881,1.19284c0.14058,0.14058 0.19881,0.1988 0.39761,0.59642c0,0 0,0.39761 0,0.39761c0.19881,0.39762 0.19881,0.59642 0.19881,0.59642c0,0.19881 0,0.39762 0.19881,0.79523c0,0 0.1988,0.39761 0.1988,0.59642c0,0.19881 0,0.39761 0,0.59642c0,0.19881 0.19881,0.39761 0.19881,0.59642c0,0 -0.07608,0.41275 0,0.59642c0.10759,0.25975 0.19881,0.3976 0.19881,0.3976c0,0.19881 0,0.39761 0,0.59642c0,0.19881 0.09122,0.33667 0.19881,0.59642c0.07608,0.18367 0,0.59642 0,0.79523c0,0.39761 0,0.59642 0,0.79522c0,0.19881 0,0.39762 0,0.79523c0,0.19881 0,0.39761 0,0.59642c0,0.19881 0,0.39761 0,0.79523c0,0.1988 0,0.39761 0,0.59642c0,0.1988 0,0.59642 0,0.79522c0,0 0,0.19881 0,0.39762c0,0.19881 0,0.39761 0,0.39761c0,0.19881 0,0.39762 0,0.59642c0,0.19881 0,0.19881 0,0.39762c0,0.1988 0,0.1988 -0.19881,0.39761c0,0 0,0.19881 0,0.39761c0,0 0,0 0,0c0,0.19879 0,0.19879 0,0.19879c-0.19881,0 -0.19881,0.19881 -0.19881,0.19881l0,0" id="svg_3" fill-opacity="0.53" stroke-width="0.1" stroke="#000" fill="url(#svg_5)"/>
  <ellipse id="svg_6" cy="176.54011" cx="199.701429" fill-opacity="0.53" stroke-width="0.1" stroke="#000" fill="url(#svg_5)"/>
  <ellipse id="svg_7" cy="177.335336" cx="210.039364" fill-opacity="0.53" stroke-width="0.1" stroke="#000" fill="url(#svg_5)"/>
  <path d="m45.20677,121.05261c0,0 0,0.18798 0,0.18798c0,0.37593 0,0.37593 0,0.75187c0,0.37594 0,0.75188 0,0.93985c0,0.18797 0,0.56391 0,0.75188c0,0.18797 0,0.56391 0,0.93985c0,0.18797 0,0.37594 0,0.56391c0,0.18797 0,0.37594 0,0.37594c0,0.18797 0,0.18797 0,0.37594c0,0.18797 0,0.37594 0,0.75188c0,0.18797 0,0.37594 0,0.56391c0,0.18797 0,0.37594 0,0.56391c0,0.18796 -0.18797,0.37594 -0.18797,0.56391c0,0 0,0.18797 0,0.18797c0,0.18797 0,0.37593 0,0.37593c0,0.18797 0,0.37595 0,0.56392c0,0.18797 0,0.37593 0,0.37593c0,0.18797 0,0.18797 0,0.37595c0,0 0,0.18797 0,0.37594c0,0 0,0.18796 0,0.37593c0,0.18798 0,0.37595 0,0.37595c0,0.37593 0,0.37593 0,0.5639c0,0 0.05506,0.05506 0.18797,0.18798c0.13292,0.13292 0,0.37593 0,0.5639c0,0 0,0.18797 0.18797,0.56392c0,0 0,0.37593 0,0.37593c0,0.18797 0.08624,0.31833 0.18797,0.56392c0.07193,0.17365 0.08624,0.31831 0.18797,0.5639c0.07193,0.17366 0,0.37595 0,0.37595c0,0.18796 0,0.18796 0,0.37593c0,0 0.08624,-0.05763 0.18797,0.18797c0.07194,0.17366 -0.18797,0.37595 0,0.37595c0.18798,0 0,-0.18797 0,-0.18797c0.18797,0 0.18797,0 0.18797,0c0,0 0.18797,0 0.18797,-0.18798c0,0 0,0 0,0c0.18797,0 0.18797,-0.18797 0.18797,-0.18797c0,0 0.18797,0 0.18797,0c0.18797,0 0.18797,0 0.37594,0c0,0 0,0 0.18797,0c0,0 0.18797,-0.18797 0.18797,-0.18797c0,0 0.18797,0 0.18797,0c0,0 0.18797,0 0.18797,0c0.18797,0 0.18797,0 0.37594,0c0,0 0,0 0,0c0.18797,0 0.18797,0 0.37594,0c0,0 0.01431,0.11604 0.18797,0.18797c0.2456,0.10173 0.24302,0.24303 0.37594,0.37595c0.13292,0.13292 0.18797,0 0.18797,0c0,0.18797 0.18797,0.18797 0.18797,0.37593c0,0 0,0 0,0c0.18797,0.18797 0.18797,0.18797 0.18797,0.18797c0,0.18797 0,0.18797 0.18797,0.37595c0,0 0,0 0,0.18797c0,0 0.18797,0 0.18797,0.18796c0,0 -0.13292,0.05505 0,0.18797c0.13292,0.13292 0.18797,0.18797 0.18797,0.18797c0.18797,0.18798 0.18797,0.18798 0.18797,0.37595c0,0.18796 0.11603,0.39024 0.18797,0.5639c0.10172,0.24559 0.18797,0.37593 0.18797,0.37593c0.18797,0.18798 0.18797,0.18798 0.18797,0.37595c0,0 0,0.18797 0,0.18797c0,0 0,0.18798 0,0.56391c0,0.18797 0,0.37594 0,0.56392c0,0 0.08624,0.13034 0.18797,0.37593c0.07193,0.17366 0,0.18797 0,0.37594c0,0 0,0.18798 0,0.18798c0,0.18795 0.18797,0.18795 0.18797,0.18795c0,0.18798 0,0.18798 0,0.37595c0,0 0.08624,-0.05762 0.18797,0.18797c0.07193,0.17366 -0.13291,0.24303 0,0.37593c0.13291,0.13292 0.18797,0 0.18797,0.18798c0,0 0,0 0,0.18797c0,0 0.18797,0.18797 0.18797,0.37595c0,0 0,0.18795 0,0.18795c0,0.18798 0,0.18798 0,0.18798c0.18797,0.18797 0.18797,0.18797 0.18797,0.37594c0,0.18798 0,0.18798 0,0.37593c0,0 0,0.18798 0,0.18798c0,0 0,0.18797 0,0.18797c0,0 0.18797,0.18797 0.18797,0.18797c0,0.18798 0,0.18798 0,0.18798c0,0.18795 0,0.18795 0,0.18795c0,0.18798 0,0.18798 0,0.18798c0,0 0,0.18797 0,0.18797c0,0.18797 0.18797,0.18797 0.18797,0.37593c0,0 0,0.18797 0,0.18797c0,0 0,0.18798 0,0.18798c0,0 0,0.18797 0,0.18797c0,0.18797 0,0.18797 0,0.37593c0,0 0,0 0,0.18797c0,0 0,0.18798 0,0.18798c0,0.18797 0,0.37594 0,0.37594c0,0.18796 0,0.18796 0,0.37593c0,0 0,0.18798 0,0.37595c0,0 0,0.18797 0,0.18797c0,0.18796 0,0.18796 0,0.37593c0,0 0,0.18798 0,0.18798c0,0.18797 0,0.18797 0,0.37594c0,0 0,0 0,0.18796c0,0 0,0.18797 0,0.18797c0,0 0,0 -0.18797,0.18798c0,0 -0.05506,0.24302 -0.18797,0.37594c-0.13291,0.13291 0,0.18796 0,0.18796c0,0.18797 0,0.18797 0,0.37595c0,0 0,0 -0.18797,0.18797c0,0 0.07192,0.20228 0,0.37593c-0.10173,0.24559 -0.18797,0.18797 -0.18797,0.37595c0,0 0.13291,0.05505 0,0.18797c-0.13292,0.13292 -0.18797,0.18797 -0.18797,0.18797c0,0.18796 -0.18797,0.18796 -0.18797,0.37593c0,0 0,0 0,0.18798c0,0 -0.18797,0.18797 -0.18797,0.18797c-0.18797,0.18796 -0.18797,0.18796 -0.18797,0.18796c0,0.18797 -0.08624,0.13034 -0.18797,0.37594c-0.07194,0.17366 -0.24303,0.24303 -0.37594,0.37595c-0.13291,0.1329 0,0.18796 0,0.18796c-0.18797,0.18797 -0.11604,0.20228 -0.18797,0.37594c-0.10173,0.24559 -0.37594,0.37595 -0.37594,0.56391c0,0 0,0 0,0c-0.18797,0 -0.05506,0.24302 -0.18797,0.37594c-0.13292,0.13292 -0.18797,0.18797 -0.18797,0.18797c-0.18797,0 -0.18797,0.18798 -0.18797,0.18798c0,0 -0.18797,0.18796 -0.18797,0.18796c0,0.18797 -0.18797,0.18797 -0.18797,0.37594c0,0 0,0.18797 0,0.18797c0,0.18798 -0.18797,0.18798 -0.18797,0.37594c0,0 0,0 0,0c0,0.18797 0,0.18797 -0.18797,0.37594c0,0 0,0 0,0.18797c0,0 0,0.18798 -0.18797,0.18798c0,0 0,0 0,0.18796c0,0.18797 -0.18797,0.18797 -0.18797,0.37594c0,0 0.13292,0.05505 0,0.18797c-0.13291,0.13292 -0.18797,0.18798 -0.18797,0.18798c-0.18797,0.18795 -0.18797,0.18795 -0.18797,0.37593c0,0 -0.18797,0.18797 -0.18797,0.18797c0,0.18797 0,0.18797 -0.18797,0.5639c0,0 -0.18797,0.18798 -0.18797,0.18798c0,0.18797 0,0.18797 0,0.18797c-0.37594,0.37593 -0.56391,0.5639 -0.75188,0.93985c0,0 0,0.18797 0,0.18797c0,0 -0.05505,0.05504 -0.18797,0.18796c-0.13291,0.13292 0,0.37595 0,0.37595c-0.18797,0.18797 -0.18797,0.18797 -0.18797,0.37594c0,0.18796 -0.18797,0.18796 -0.18797,0.37593c0,0 0,0.18798 -0.18797,0.37595c-0.18797,0.18797 -0.18797,0.37593 -0.37594,0.5639c0,0 0,0.18798 0,0.18798c-0.18797,0.18797 -0.27937,0.15484 -0.37594,0.5639c-0.04318,0.18294 -0.18797,0.37595 -0.18797,0.37595c-0.18797,0.18797 -0.18797,0.18797 -0.18797,0.18797c0,0.18797 0.07785,0.29808 -0.18797,0.5639c-0.13291,0.13292 -0.18797,0.18798 -0.18797,0.18798c-0.18797,0.18797 -0.05505,0.24302 -0.18797,0.37594c-0.13291,0.13292 -0.27421,0.13034 -0.37594,0.37593c-0.07193,0.17366 -0.18797,0.37595 -0.18797,0.56392c0,0 -0.18797,0.18796 -0.18797,0.37593c0,0 0,0.18798 0,0.18798c-0.18797,0 -0.05506,0.24302 -0.18797,0.37593c-0.13291,0.13292 -0.18797,0.18797 -0.37594,0.37594c0,0 0,0.18798 0,0.18798c-0.18797,0 -0.18797,0.18797 -0.18797,0.18797c0,0.18796 -0.18797,0.37593 -0.18797,0.37593c-0.18797,0 -0.18797,0.18797 -0.18797,0.18797c0,0 -0.18797,0.18798 -0.18797,0.18798c-0.18797,0.18797 -0.24302,0.24301 -0.37593,0.37593c-0.13292,0.13292 0,0.18797 -0.18798,0.37594c0,0 0,0 -0.18797,0.18798c0,0 -0.18797,0.18797 -0.18797,0.18797c0,0 -0.0143,0.11603 -0.18797,0.18796c-0.24559,0.10173 -0.27421,0.31831 -0.37594,0.56392c-0.07193,0.17366 -0.05506,0.24302 -0.18797,0.37593c-0.13291,0.13292 -0.27421,0.13035 -0.37594,0.37594c-0.07193,0.17366 0.13292,0.24303 0,0.37595c-0.13291,0.13292 -0.05505,0.24301 -0.18796,0.37593c-0.13292,0.13292 -0.18797,0.18797 -0.18797,0.18797c0,0 -0.15497,0.0184 -0.37595,0.37595c-0.19764,0.31979 -0.27421,0.50629 -0.37593,0.75188c-0.07194,0.17366 -0.27422,0.31829 -0.37595,0.5639c-0.07193,0.17366 0,0.37595 -0.18797,0.56392c0,0 -0.18796,0.18796 -0.18796,0.37593c0,0 -0.11604,0.20229 -0.18797,0.37595c-0.10173,0.24559 -0.18797,0.18795 -0.18797,0.37593c0,0 -0.18797,0.18797 -0.18797,0.37594c0,0 -0.18798,0.18798 -0.18798,0.18798c0,0.18795 -0.18796,0.18795 -0.18796,0.37593c0,0 -0.18797,0.18797 -0.18797,0.37594c0,0 0,0.18798 0,0.18798c0,0 -0.18797,0 -0.18797,0c0,0.18795 -0.56391,0.93984 -0.56391,0.93984c0,0 -0.05506,0.05504 -0.18797,0.18796c-0.13292,0.13292 0,0.18798 -0.18797,0.18798c0,0 0.13291,0.24302 0,0.37594c-0.13292,0.13292 -0.18797,0.18797 -0.37594,0.37593c0,0 0.07193,0.01432 0,0.18798c-0.10173,0.2456 -0.37594,0.18797 -0.56391,0.37594c0,0 -0.05506,0.24303 -0.18797,0.37593c-0.13292,0.13292 -0.18797,0 -0.37594,0.18798c0,0 0,0 -0.18797,0c0,0 0,0 0,0c-0.18797,0 -0.18797,0.18797 -0.37594,0.18797c0,0 0,0 0,0c-0.18797,0 -0.18797,-0.18797 -0.18797,-0.18797c0,-0.18798 0,-0.18798 0,-0.18798c0,-0.18796 0,-0.18796 0,-0.37593c0,-0.18797 0,-0.18797 0,-0.37594c0,0 0,-0.18798 0,-0.18798c0,0 0,-0.18796 0,-0.18796c-0.18797,0 -0.18797,-0.18797 -0.18797,-0.18797c0,-0.18797 0,-0.18797 0,-0.37594c0,0 0,-0.18798 0,-0.18798c0,0 -0.05506,0.13292 -0.18797,0c-0.13291,-0.1329 0,-0.18796 0,-0.18796c0,0 0,0 0,0c-0.18797,0 -0.05506,-0.05505 -0.18797,-0.18797c-0.13292,-0.13292 -0.18797,0 -0.18797,0c0,0 -0.05506,0.13292 -0.18797,0c-0.13292,-0.13292 0,-0.18797 0,-0.18797c0,0 -0.18797,0 -0.18797,0c0,0 0,0 -0.18797,0c0,0 0,0 -0.18797,0c0,0 0,0 -0.18797,0c0,0 0,0 -0.18797,-0.18797c0,0 0,0 -0.18797,0c0,0 0,0 0,0c-0.18797,0 -0.18797,0 -0.18797,0c0,0 -0.18797,0 -0.18797,0c-0.18797,-0.18798 -0.18797,-0.18798 -0.37594,-0.18798c0,0 -0.18797,0 -0.18797,0c-0.18797,-0.18795 -0.18797,-0.18795 -0.18797,-0.18795c-0.18797,0 -0.18797,0 -0.18797,0c-0.18797,0 -0.18797,-0.18798 -0.18797,-0.18798c-0.18797,0 -0.18797,0 -0.18797,0c-0.18797,0 -0.18797,0 -0.18797,0c-0.18797,-0.18797 -0.05505,-0.24302 -0.18797,-0.37594c-0.13291,-0.13292 -0.18797,0 -0.37594,0c0,0 0,-0.18798 -0.18797,-0.18798c0,0 -0.24303,0.13292 -0.37594,0c-0.1329,-0.1329 0,-0.18795 -0.18797,-0.18795c0,0 -0.18797,0 -0.18797,0c-0.18797,0 -0.18797,-0.18798 -0.18797,-0.18798c-0.18797,0 -0.18797,0 -0.18797,0c-0.18797,0 -0.18797,-0.18797 -0.37594,-0.18797c0,0 -0.05505,-0.05505 -0.18797,-0.18797c-0.13291,-0.13292 -0.18797,-0.18798 -0.37594,-0.18798c0,0 0,0 -0.18797,0c0,0 -0.05506,-0.05505 -0.18797,-0.18795c-0.13291,-0.13292 -0.18797,0 -0.37594,0c-0.18797,0 -0.37594,0 -0.37594,0c-0.18797,0 -0.18797,0.18795 -0.18797,0.18795c0,0 -0.05505,0.05506 -0.18797,0.18798c-0.13291,0.13292 0,0.18797 0,0.18797c-0.18797,0 -0.18797,0.18797 -0.37594,0.18797c0,0 -0.18797,0.18798 -0.18797,0.18798c-0.18797,0 -0.37594,0.18795 -0.56391,0.18795c0,0 -0.18797,0 -0.18797,0c-0.18797,0 -0.18797,0 -0.37594,0.18798c0,0 -0.18797,0 -0.18797,0c-0.18797,0 -0.18797,0.18797 -0.18797,0.18797c0,0 0,0.18797 0,0.18797c-0.18797,0.18798 -0.18797,0.18798 -0.18797,0.37593c0,0 -0.05505,-0.13292 -0.18797,0c-0.13291,0.13292 0,0.18798 0,0.18798c0,0 -0.18797,0 -0.18797,0c0,0 0,0 -0.18797,0c0,0 0,0 -0.18797,0c0,0 -0.27937,0.03312 -0.37594,-0.37593c-0.04318,-0.18294 -0.18796,-0.18798 -0.18796,-0.37595c0,0 0,-0.18797 0,-0.18797c-0.18797,-0.18798 -0.18797,-0.18798 -0.18797,-0.37593c0,0 0,-0.18798 0,-0.18798c0,0 0,-0.18797 0,-0.18797c0,0 0,0 0,-0.18797c0,0 0.18797,0 0.18797,-0.18798c0,0 0.05505,-0.24301 0.18796,-0.37593c0.13292,-0.13292 0.27422,-0.13035 0.37594,-0.37594c0.07193,-0.17365 0.05506,-0.24302 0.18797,-0.37593c0.13292,-0.13292 0.05506,-0.24303 0.18797,-0.37595c0.13292,-0.13292 0,-0.18797 0,-0.18797c0,-0.18796 0.18797,-0.18796 0.18797,-0.37593c0,0 0,0 0,-0.18798c0,-0.18797 0.05506,-0.24302 0.18797,-0.37594c0.13291,-0.13291 0,-0.37593 0,-0.37593c0.18797,-0.18798 0.18797,-0.18798 0.18797,-0.37595c0,0 0,-0.18797 0,-0.18797c0.18797,0 0.18797,0 0.18797,-0.18796c0,0 0,0 0,-0.18797c0,0 0,-0.18798 0,-0.18798c0,0 0,0 0,-0.18797c0,0 0.18797,0 0.18797,0c0,-0.18797 0,-0.18797 0,-0.18797c0,-0.18796 0,-0.37593 0.18797,-0.37593c0,0 0,-0.18798 0,-0.18798c0,0 0,-0.18797 0,-0.18797c0,-0.18797 0.18797,-0.18797 0.18797,-0.37593c0,0 0,0 0,-0.18797c0,0 0,0 0,-0.18798c0,0 0,-0.18797 0,-0.37594c0,0 0.05506,-0.05504 0.18797,-0.18796c0.13292,-0.13292 0,-0.37595 0,-0.37595c0,-0.18797 0,-0.18797 0,-0.18797c0,0 0,0 0,-0.18797c0,0 0,0 0,0c0.18797,0 0.18797,-0.18796 0.18797,-0.56391c0,-0.37594 0,-0.5639 0,-0.93985c0,-0.18797 0.05506,-0.43098 0.18797,-0.5639c0.13292,-0.13292 0,-0.37595 0,-0.37595c0,0 -0.07193,-0.01431 0,-0.18797c0.10173,-0.24559 0.11604,-0.20227 0.18797,-0.37593c0.10173,-0.24559 0.18797,-0.18797 0.18797,-0.18797c0,0 0,0 0.18797,0c0,0 0,-0.18798 0,-0.18798c0,0 0.18797,-0.18797 0.18797,-0.18797c0,-0.18796 0,-0.18796 0,-0.18796c0,0 -0.07193,-0.01431 0,-0.18797c0.10173,-0.24559 0.18797,-0.37595 0.18797,-0.37595c0,-0.18797 0.18797,-0.18797 0.18797,-0.18797c0,-0.18796 0,-0.18796 0,-0.18796c0,-0.18797 0.08624,-0.13035 0.18797,-0.37594c0.07194,-0.17366 0,-0.18798 0,-0.37595c0,0 0.05506,0.13292 0.18797,0c0.13291,-0.1329 0,-0.37593 0,-0.37593c0,-0.18797 0.08624,-0.13036 0.18797,-0.37595c0.07194,-0.17366 0,-0.18797 0.18797,-0.37593c0,0 0.05506,-0.05505 0.18797,-0.18797c0.13292,-0.13292 0,-0.18797 0,-0.37595c0,-0.18797 0.18797,-0.18797 0.18797,-0.37593c0,0 0,-0.18797 0,-0.18797c0.18797,-0.18797 0.18797,-0.18797 0.18797,-0.37595c0,0 0.05506,-0.05505 0.18797,-0.18797c0.13291,-0.1329 -0.13292,-0.24301 0,-0.37593c0.13292,-0.13292 0.18797,-0.18797 0.18797,-0.18797c0,-0.18798 0,-0.37593 0,-0.37593c0,-0.18798 0.18797,-0.37595 0.18797,-0.56392c0,0 0,-0.18798 0,-0.37593c0,0 0.05506,-0.05506 0.18797,-0.18798c0.13292,-0.13292 0,-0.37594 0,-0.37594c0,-0.18797 0,-0.18797 0,-0.18797c0,-0.18796 0,-0.18796 0,-0.56391c0,-0.18797 0.18797,-0.37594 0.18797,-0.37594c0,0 0,-0.18796 0,-0.18796c0,-0.18798 0.11604,-0.39026 0.18797,-0.56392c0.10173,-0.24559 0.18797,-0.37593 0.18797,-0.37593c0.18797,-0.18798 0.18797,-0.37595 0.18797,-0.37595c0,-0.18797 0.18797,-0.18797 0.18797,-0.37594c0,0 0.18797,0 0.18797,0c0,-0.18796 0,-0.18796 0,-0.18796c0,0 0.18797,-0.18798 0.18797,-0.37595c0,0 0.18797,-0.18797 0.18797,-0.18797c0,-0.18797 0,-0.18797 0,-0.18797c0,-0.18796 0,-0.18796 0.18797,-0.37594c0,0 -0.13292,-0.24302 0,-0.37594c0.13291,-0.13292 0.18797,-0.18797 0.18797,-0.37593c0,0 0,-0.18797 0.18797,-0.37595c0,0 0.08624,-0.13034 0.18797,-0.37593c0.07194,-0.17366 0,-0.18797 0,-0.37594c0,0 0.18797,-0.18798 0.18797,-0.37595c0,0 0.18797,-0.37593 0.18797,-0.37593c0,-0.18797 0,-0.18797 0.18797,-0.37595c0,0 0,-0.18797 0,-0.37593c0,0 0.05506,-0.05505 0.18797,-0.18797c0.13292,-0.13292 0,-0.18797 0,-0.37595c0,0 0,0 0,-0.18797c0,-0.18796 0.18797,-0.37593 0.18797,-0.37593c0,-0.18797 0,-0.18797 0,-0.37595c0,0 0.05506,-0.05505 0.18797,-0.18797c0.13291,-0.1329 0,-0.18796 0,-0.37593c0,0 0,0 0,-0.18797c0,-0.18798 0.27421,-0.69426 0.37594,-0.93985c0.14387,-0.34734 0.08624,-0.50629 0.18797,-0.75188c0.07193,-0.17366 -0.07785,-0.48605 0.18797,-0.75188c0.13291,-0.13292 0.05505,-0.24302 0.18797,-0.37594c0.13291,-0.13292 0.05506,-0.24303 0.18797,-0.37593c0.13292,-0.13292 0.18797,0 0.18797,-0.18798c0,0 0,0 0.18797,-0.18797c0,0 0,-0.18797 0,-0.37595c0,0 0.18797,0 0.18797,0c0,-0.18795 0,-0.18795 0,-0.18795c0.37594,-0.93985 0.24302,-1.18288 0.37594,-1.3158c0.13291,-0.13292 0.18797,-0.18797 0.18797,-0.37595c0,0 0.08624,-0.13034 0.18797,-0.37593c0.07193,-0.17366 0.08624,-0.13035 0.18797,-0.37594c0.07193,-0.17366 0,-0.18798 0,-0.37593c0,0 0.09275,0.02282 0.18797,-0.56392c0.03011,-0.18555 0.18797,-0.37593 0.18797,-0.56391c0,-0.18797 0.14479,-0.56895 0.18797,-0.75187c0.09657,-0.40908 0.37594,-0.56392 0.37594,-0.7519c0,0 0,-0.18795 0,-0.18795c0,0 0.11603,-0.20229 0.18797,-0.37595c0.10172,-0.24559 0.24302,-0.61896 0.37594,-0.75188c0.13291,-0.13292 0.18797,-0.18797 0.18797,-0.18797c0.18797,-0.18797 0.18797,-0.18797 0.18797,-0.18797c0,-0.18796 0.18797,-0.37593 0.18797,-0.37593c0,-0.18798 0.05505,-0.05506 0.18797,-0.18798c0.13291,-0.13292 0,-0.18797 0.18797,-0.37594c0,0 0,-0.18796 0,-0.18796c0.18796,-0.18797 0.05505,-0.431 0.18796,-0.56392c0.13292,-0.13292 0.18798,-0.37593 0.18798,-0.37593c0.18797,-0.18797 0.11603,-0.20229 0.18797,-0.37595c0.10172,-0.24559 0.27421,-0.31831 0.37594,-0.5639c0.07193,-0.17366 0,-0.18797 0.18796,-0.37595c0,0 0.11604,-0.20228 0.18798,-0.37594c0.10173,-0.24559 0.11603,-0.20227 0.18797,-0.37593c0.10172,-0.24559 0.27421,-0.13036 0.37594,-0.37595c0.07193,-0.17366 0.08624,-0.31831 0.18796,-0.5639c0.07194,-0.17366 0.24303,-0.431 0.37595,-0.56392c0.1329,-0.13291 0.18797,-0.18796 0.18797,-0.18796c0,-0.56392 0.0441,-0.78049 0.18797,-1.12782c0.10172,-0.24559 0.304,-0.20229 0.37593,-0.37595c0.10173,-0.24559 0.11604,-0.39024 0.18798,-0.5639c0.10172,-0.24559 0.18797,-0.18798 0.18797,-0.37595c0,-0.18796 0.11603,-0.39024 0.18796,-0.5639c0.10173,-0.24559 0.24303,-0.431 0.37594,-0.56391c0.13292,-0.13292 0,-0.37594 0,-0.37594c0,0 0.08625,0.05762 0.18797,-0.18797c0.07193,-0.17367 0,-0.37594 0,-0.37594c0,-0.18797 0.18798,-0.18797 0.18798,-0.18797c0,-0.18797 0.18796,-0.18797 0.18796,-0.18797c0,-0.37594 0.08625,-0.50629 0.18797,-0.75188c0.07194,-0.17366 0.18797,-0.37594 0.18797,-0.37594c0,-0.18797 0,-0.18797 0,-0.37594c0,0 0.18797,0 0.18797,-0.18797c0,-0.18797 0.18798,-0.37594 0.18798,-0.37594c0.18796,-0.37594 0.18796,-0.37594 0.18796,-0.56391c0,0 0,-0.18797 0,-0.18797c0.18797,0 0.18797,0 0.18797,-0.18797c0,-0.18797 -0.04318,-0.193 0,-0.37594c0.09657,-0.40907 0.22051,-0.7242 0.37594,-0.93985c0.24576,-0.34098 0.46219,-0.50628 0.56391,-0.75188c0.07193,-0.17366 0.05506,-0.43099 0.18797,-0.56391c0.13292,-0.13291 0.37594,-0.18797 0.37594,-0.37594c0,-0.18796 0.18797,-0.18796 0.18797,-0.18796c0,0 0,0 0.18797,-0.18798c0,0 0.18797,0 0.18797,0c0.18797,0 0.18797,0 0.18797,0.18798c0,0 0.18797,0.18796 0.18797,0.18796c0,0 0,0 0.18797,0.18797c0,0 0,0.18797 0,0.18797c0.18797,0 0.18797,0.18797 0.18797,0.18797c0,0 0,0.18798 0,0.18798c0,0.18796 0,0.18796 0,0.18796c0,0.18797 0.05506,0.05506 0.18797,0.18797c0.13291,0.13292 0,0.18797 0,0.18797c0,0 0,0.18797 0,0.18797c0,0 0,0 0,0.18797c0,0 0,0 0,0.18797c0,0.18797 0,0.37594 0,0.56391c0,0 0,0.18797 0,0.18797c0,0 0,0.18797 0,0.37594c0,0.18797 0,0.18797 0.18797,0.37594c0,0 0,0.18797 0,0.18797c0,0.18797 0,0.37594 0,0.37594c0,0 0,0 0,0.18797l0,0l0,0" id="svg_10" fill-opacity="0.53" stroke-width="0.1" stroke="#000" fill="url(#svg_5)"/>
 </g>
</svg>