<svg width="200" height="369.03" xmlns="http://www.w3.org/2000/svg">
 <defs>
  <linearGradient y2="0" x2="1" y1="0" x1="0" id="svg_2">
   <stop offset="1" stop-color="#fc0000"/>
   <stop offset="1" stop-color="#03ffff"/>
  </linearGradient>
 </defs>
 <metadata id="metadata7">image/svg+xml</metadata>
 <g>
  <title>background</title>
  <rect fill="none" id="canvas_background" height="402" width="582" y="-1" x="-1"/>
 </g>
 <g>
  <title>Layer 1</title>
  <path fill-opacity="0.68" d="m49.074245,88.518211c0,0 0,0 0,0c0,-0.370369 0,-0.740738 0,-1.111107c0,-0.370369 0,-0.740738 0,-1.111107c0,0 0.370369,-0.370369 0.370369,-0.740738c0,0 -0.26189,-0.478851 0,-0.740738c0.26189,-0.261887 0.370369,-0.370369 0.370369,-0.740738c0,-0.370369 0.285275,-0.38028 0.370369,-0.740738c0.190277,-0.806015 0.370373,-1.111107 0.370373,-1.111107c0.370369,-0.740738 0.370369,-0.740738 0.370369,-1.111107c0,-0.370369 0.108479,-0.84922 0.370369,-1.111107c0.26189,-0.261887 0.228634,-0.39856 0.370369,-0.740738c0.200443,-0.48391 0.478848,-0.478851 0.740738,-0.740738c0.26189,-0.261887 0.228634,-0.39856 0.370369,-0.740738c0.200443,-0.48391 0.370369,-0.370369 0.370369,-0.370369c0.370369,-0.370369 0.108479,-0.478851 0.370369,-0.740738c0.26189,-0.261887 0.256828,-0.540298 0.740738,-0.740738c0.342175,-0.141731 0.740738,-0.740738 1.111107,-1.111107c0.370369,-0.370369 0.627197,-0.540298 1.111107,-0.740738c0.342175,-0.141731 0.305088,-0.550468 1.111107,-0.740746c0.360462,-0.085098 0.740738,-0.370369 1.481476,-0.740738c0.740742,-0.370369 1.167496,-0.457268 1.851849,-0.740738c0.48391,-0.200439 0.740738,-0.370369 1.111107,-0.370369c0,0 0.370369,0 0.370369,0c0.370369,-0.370369 0.740738,-0.370369 1.111107,-0.370369c0.370369,0 0.370369,-0.370369 0.740742,-0.370369c0,0 0.370369,0 0.370369,0c0.370369,0 0.39856,0.141731 0.740738,0c0.48391,-0.200439 0.370369,-0.370369 0.740738,-0.370369c0,0 0.370369,0 0.370369,0c0.370369,0 0.370369,0 0.740738,0c0.370369,0 0.370369,0 0.740738,0c0,0 0.370369,0 0.740738,0c0,0 0,0 0.370369,0c0,0 0,0 0.370369,0c0.370369,0 0.370369,0 0.740738,0c0,0 0,0 0.370369,0c0,0 0.370369,0.370369 0.370369,0.370369c0.370369,0 0.370369,0 0.370369,0c0.370369,0 0.108482,0.108482 0.370369,0.370369c0.261887,0.261887 0.370369,0 0.370369,0c0,0 0,0 0.370369,0.370369c0,0 0,0 0,0c0,0 0.370369,0 0.370369,0c0,0.370369 0,0.370369 0.370369,0.370369c0,0 0,0 0.370369,0c0,0 0.370369,0.370369 0.370369,0.370369c0.370369,0 0.370369,0 0.370369,0c0.370369,0.370369 0.370369,0.370369 0.370369,0.370369c0,0 0.370369,0 0.370369,0c0.370369,0 0.370369,0.370369 0.370369,0.370369c0.370369,0 0.370369,0 0.370369,0c0.370369,0.370369 0.478851,0.108482 0.740738,0.370369c0.261894,0.261894 0,0.370377 0,0.370377c0,0 0.370369,0.370369 0.370369,0.370369c0,0 0,0 0,0.370369c0,0 0,0 0.370369,0c0,0 0,0.370369 0,0.370369c0,0 0,0.370369 0.370369,0.370369c0,0 0,0.370369 0,0.370369c0,0 0.370369,0.370369 0.370369,0.370369c0,0 0,0.370369 0,0.370369c0,0 0.370369,0 0.370369,0.370369c0,0 -0.261887,0.108482 0,0.370369c0.261887,0.261887 0.370369,0.370369 0.370369,0.370369c0,0 0,0 0,0.370369c0,0 0,0 0.370369,0.370369c0,0 0,0 0,0.370369c0,0 0,0 0,0.370369c0,0 0.370369,0 0.370369,0.370369c0,0 0,0 0,0.370369c0,0 0,0 0,0.370369c0,0 0.370369,0.370369 0.370369,0.370369c0,0.370369 0,0.370369 0,0.370369c0,0 0,0.370369 0,0.370369c0,0 -0.261887,0.108482 0,0.370369c0.261887,0.261887 0.370369,0 0.370369,0c0,0 0,-0.370369 0,-0.370369c0,0 0,0 0,-0.370369c0,0 0,-0.370369 0,-0.370369c0,0 -0.370369,-0.370369 -0.370369,-0.370369c0,0 0,-0.370369 0,-0.370369c-0.370369,0 -0.370369,-0.370369 -0.740738,-0.370369c-0.370369,0 -0.768929,-0.228638 -1.111107,-0.370369c-0.48391,-0.200439 -0.768929,-0.228638 -1.111107,-0.370369c-0.48391,-0.200439 -0.740738,-0.370369 -1.481476,-0.370369c0,0 -0.370369,-0.370369 -0.740738,-0.370369c-0.370369,0 -0.740738,0 -0.740738,0c-0.370369,0 -0.740738,0 -0.740738,0c0,0 0,0 -0.370369,0c0,0 -0.370369,0 -0.370369,0c0,0 -0.370369,0 -0.370369,0c-0.370369,0.370369 -0.740738,0.370369 -0.740738,0.370369c-0.370369,0 -0.108482,0.108482 -0.370369,0.370369c-0.261887,0.261887 -0.370369,0 -0.370369,0c0,0.370369 -0.370369,0.370369 -0.370369,0.370369c0,0.370369 -0.370369,0.370369 -0.370369,0.370369c0,0 -0.370369,0.370369 -0.370369,0.370369c0,0 -0.370369,0 -0.370369,0c-0.370369,0.370369 -0.370369,0.370369 -0.370369,0.370369c-0.370369,0.370369 -0.740738,0.370369 -0.740738,0.370369c-0.370369,0.370369 -0.39856,0.228638 -0.740738,0.370369c-0.48391,0.200439 -0.370369,0.370369 -0.740738,0.740738c0,0 -0.370369,0.370369 -0.740738,0.740738c0,0 -0.370369,0.370369 -0.370369,0.370369c-0.370369,0.370369 -0.370369,0.370369 -0.370369,0.370369c-0.370369,0 -0.370369,0 -0.370369,0.370369c0,0 -0.370369,0 -0.370369,0c0,0.370369 0,0.370369 -0.370373,0.370369c0,0 0,0.370369 -0.370369,0.370369c0,0 -0.370369,0.370369 -0.370369,0.370369c0,0.370369 -0.478848,0.108482 -0.740738,0.370369c-0.26189,0.261887 -0.370369,0.370369 -0.740738,0.740738c0,0 -0.370369,0 -0.370369,0.370369c0,0 -0.478848,-0.261887 -0.740738,0c-0.26189,0.261887 -0.370369,0.370369 -0.370369,0.370369c-0.370369,0.370369 -0.740742,0.370369 -0.740742,0.370369c-0.370369,0 -0.370369,0.370369 -0.740738,0.370369c0,0 -0.370369,0.370369 -0.370369,0.370369c-0.370369,0 -0.370369,0.370369 -0.740738,0.370369c0,0 -0.370369,0 -0.370369,0.370369c0,0 -0.108479,0.108482 -0.370369,0.370369c-0.26189,0.261887 -0.370369,0 -0.740738,0.370369c0,0 0,0 0,0c-0.370369,0 -0.398563,0.228638 -0.740738,0.370369c-0.48391,0.200439 -0.740738,0.370369 -0.740738,0.370369c-0.370369,0.370369 -0.370369,0.370369 -0.740738,0.370369c0,0 -0.370369,0.370369 -0.370369,0.370369c-0.370369,0 -0.370369,0 -0.370369,0c-0.370369,0 -0.370369,0 -0.370369,0c-0.370369,0.370369 -0.370369,0.370369 -0.740738,0.370369c0,0 0,0 -0.370369,0c0,0 -0.370369,0 -0.370369,0c0,0 -0.370369,0 -0.370369,0c-0.370369,0 -0.370369,0 -0.370369,0c0,-0.370369 0,-0.370369 -0.370373,-0.370369c0,0 0,-0.370369 0,-0.370369c0,0 0,0 0,-0.370369c0,0 0,0 0,0c0,-0.370369 -0.370369,-0.370369 -0.370369,-0.370369c0,0 0,-0.370369 0,-0.370369c0,0 0,-0.370369 0,-0.370369c0,0 0,0 -0.370369,-0.370369c0,0 0,0 0,-0.370369c0,0 0,0 0,-0.370369c0,0 0,0 0,0c0,-0.370369 0,-0.370369 0,-0.370369l0,-0.370369" id="svg_1" stroke-width="0" stroke="#000" fill="url(#svg_2)"/>
  <path d="m150.925751,90.370056c0,0 0,-0.370369 0,-0.370369c0,0 0,0 0,-0.370369c0,0 0,0 0,0c0,-0.370369 0,-0.370369 0,-0.370369c0,-0.370369 0,-0.370369 0,-0.370369c0,-0.370369 0,-0.370369 0,-0.370369c0,0 0,-0.370369 0,-0.370369c0,0 0.108475,-0.108475 0.370377,-0.370369c0.261887,-0.261887 0,-0.740738 0,-0.740738c0,0 0,-0.370369 0,-0.370369c0,0 0,0 0,-0.370369c0,0 0,0 0,0c0,-0.370369 0.370361,-0.370369 0.370361,-0.370369c0,0 0,-0.370369 0,-0.370369c0,-0.370369 0,-0.370369 0,-0.740738c0,0 0,0 0,-0.370369c0,0 -0.740738,-1.851845 -0.740738,-2.222214c0,-0.370369 -0.370361,-0.740738 -0.370361,-0.740738c0,-0.370369 -0.086914,-0.797119 -0.370377,-1.481476c-0.200439,-0.48391 -0.540298,-0.256821 -0.740738,-0.740738c-0.141739,-0.342178 0,-0.370369 0,-0.740738c0,0 0,-0.370369 -0.370361,-0.740738c0,0 -0.108475,-0.108475 -0.370377,-0.370369c-0.261887,-0.261887 0,-0.740738 -0.370361,-0.740738c0,0 0,-0.370369 0,-0.370369c-0.370377,-0.370369 -0.370377,-0.370369 -0.370377,-0.370369c-0.370361,-0.370369 -0.370361,-0.370369 -0.370361,-0.370369c0,0 0,-0.370369 -0.370377,-0.370369c0,0 0,0 0,0c0,0 -0.370361,-0.370369 -0.370361,-0.370369c0,0 -0.370377,0 -0.370377,0c0,-0.370369 0,-0.370369 -0.370361,-0.370369c0,0 0,0 -0.370377,-0.370369c0,0 -0.108475,0.261887 -0.370361,0c-0.261887,-0.261887 0,-0.370369 -0.370377,-0.370369c0,0 0,0 -0.370377,-0.370377c0,0 0.261887,-0.108482 0,-0.370369c-0.261887,-0.261887 -0.370361,0 -0.370361,0c0,0 0,0 -0.370377,-0.370369c0,0 0,0 0,0c0,0 0.261887,-0.108482 0,-0.370369c-0.261887,-0.261887 -0.370361,0 -0.370361,0c0,0 0,0 -0.370377,0c0,0 0,0 -0.370361,-0.370369c0,0 0,0 0,0c-0.370377,0 -0.370377,0 -0.370377,0c0,0 0,0 -0.370361,0c0,0 0,0 0,0c-0.370377,0 -0.370377,0 -0.370377,0c0,-0.370369 0,-0.370369 -0.370361,-0.370369c0,0 0,0 0,0c-0.370377,0 -0.370377,0 -0.370377,0c-0.370361,0 -0.370361,0 -0.370361,0c-0.370377,0 -0.370377,-0.370369 -0.370377,-0.370369c-0.370361,0 -0.740738,-0.370369 -0.740738,-0.370369c-0.370361,0 -0.370361,0 -0.740738,-0.370369c0,0 -0.370361,0 -0.370361,0c-0.370377,0 -0.740738,-0.370369 -0.740738,-0.370369c-0.370377,0 -0.370377,0 -0.740738,0c-0.370377,0 -0.370377,0 -0.740738,0c0,0 -0.370377,0 -0.370377,0c-0.370361,0 -0.740738,0 -0.740738,0c-0.370361,0 -0.370361,0 -0.370361,0c-0.370377,0 -0.370377,0 -0.740738,0c0,0 0,0 -0.370377,0c0,0 0,0 -0.370361,0c0,0 -0.370377,0 -0.370377,0c-0.370361,0.370369 -0.478836,0.108475 -0.740738,0.370369c-0.261887,0.261887 -0.108475,0.478851 -0.370361,0.740738c-0.261902,0.261894 -0.540298,-0.113541 -0.740738,0.370369c-0.141739,0.342178 -0.370377,0.370369 -0.370377,0.370369c-0.370361,0.370369 -0.370361,0.370369 -0.370361,0.370369c0,0 -0.370377,0 -0.370377,0.370369c0,0 -0.370361,0 -0.370361,0c-0.370377,0 -0.370377,0 -0.370377,0.370369c0,0 -0.370361,0 -0.370361,0c0,0 -0.370377,0.370369 -0.370377,0.370369c-0.370369,0 -0.370369,0.370377 -0.740738,0.370377c0,0 -0.108482,-0.261887 -0.370369,0c-0.261887,0.261887 0,0.370369 -0.370369,0.370369c0,0 0,0.370369 -0.370369,0.370369c0,0 0,0 0,0.370369c0,0 -0.370369,0 -0.370369,0c0,0 0,0 -0.370369,0.370369c0,0 0,0 0,0c-0.370369,0.370369 -0.370369,0.370369 -0.370369,0.370369c0,0 -0.370369,0 -0.370369,0.370369c0,0 0,0 0,0c-0.370369,0.370369 -0.370369,0.370369 -0.370369,0.370369c0,0 0.370369,0 0.370369,0c0,0 0,0 0,0c0.370369,0 0.370369,0 0.370369,0c0,0 0.370369,0 0.370369,0c0,0 0,0 0.370369,0c0,0 0,0 0,0c0,0 0,0.370369 0.370369,0.370369c0,0 0,0 0,0.370369c0,0 0,0 0.370369,0c0,0 0,0 0,0.370369c0,0 0,0 0.370369,0c0,0 0,0 0,0.370369c0,0 0,0 0,0c0,0 0,0 0.370369,0.370369c0,0 0,0 0,0c0,0 0.370369,0 0.370369,0.370369c0,0 0.370369,0 0.370369,0c0,0.370369 0,0.370369 0.370377,0.370369c0,0 -0.261887,0.108482 0,0.370369c0.261887,0.261887 0.370361,0 0.370361,0c0.370377,0 0.370377,0.370369 0.370377,0.370369c0,0 0.370361,0 0.370361,0c0,0 0.370377,0 0.370377,0.370369c0,0 0,0 0.370361,0c0,0 0,0 0,0c0.370377,0 0.370377,0.370369 0.370377,0.370369c0.370361,0 0.370361,0 0.370361,0c0,0.370369 0,0.370369 0.370377,0.370369c0,0 0,0 0,0c0.370361,0.370369 0.370361,0.370369 0.370361,0.370369c0.370377,0 0.370377,0 0.370377,0.370369c0,0 0,0 0.370361,0c0,0 0,0 0,0c0,0 0,0.370369 0.370377,0.370369c0,0 0,0 0,0c0,0 0.370361,0 0.370361,0c0,0.370369 0,0.370369 0,0.370369c0.370377,0 0.370377,0 0.370377,0.370369c0,0 0.370361,0 0.370361,0c0.370377,0.370369 0.370377,0.370369 0.370377,0.370369c0.370361,0 0.370361,0.370369 0.370361,0.370369c0.370377,0 0.10849,0.108482 0.370377,0.370369c0.261887,0.261887 0.370361,0 0.370361,0c0.370377,0.370369 0.370377,0.370369 0.370377,0.370369c0,0 0.370361,0.370369 0.370361,0.370369c0.370377,0 0.370377,0.370369 0.370377,0.370369c0.370361,0 0.370361,0.370369 0.370361,0.370369c0.370377,0.370369 0.370377,0.370369 0.370377,0.370369c0.370361,0.370369 0.370361,0.370369 0.740738,0.370369c0,0 0,0.370369 0,0.370369c0.370361,0 0.370361,0 0.370361,0c0.370377,0.370369 0.370377,0.370369 0.370377,0.370369c0,0 0.370361,0.370369 0.370361,0.370369c0,0.370369 0,0.370369 0.370377,0.370369c0,0 0,0.370369 0.370361,0.370369c0,0 0,0.370369 0.370377,0.370369c0,0 0.370361,0.370369 0.370361,0.370369c0,0 0.10849,0.108482 0.370377,0.370369c0.261887,0.261887 0.370361,0 0.370361,0c0.370377,0 0.370377,0.370369 0.740738,0.370369c0,0 0.370377,0 0.370377,0c0.370361,0.370369 0.370361,0.370369 0.740738,0.370369c0,0 0.370361,0 0.740738,0c0,0 0.370361,0 0.370361,0c0.370377,0.370369 0.370377,0.370369 0.370377,0.370369c0,0 0.370377,0 0.370377,0c0,0 0,0 0,0c0.370361,0 0.370361,0 0.370361,0c0.370377,0.370369 0.370377,0.370369 0.370377,0.370369c0,0 0.370361,0 0.370361,0c0,0 0.370377,0 0.370377,0c0,0 0,0.370369 0.370361,0.370369c0,0 0,0 0,0c0.370377,0 0.370377,0 0.370377,0c0.370361,0 0.370361,0 0.370361,0c0,0 0.370377,0 0.370377,0c0,0 0,0 0.370361,0c0,0 0.370377,0 0.370377,0c0.370361,0 0.370361,0 0.740738,0c0,0 0.370361,0 0.370361,0c0,0 0.370377,0 0.370377,-0.370369c0,0 0.370361,0 0.740738,0c0,0 0,0 0,-0.370369c0,0 0,0 0.370361,-0.370369c0,0 0,0 0,0c0,0 0.370377,-0.370369 0.370377,-0.370369l0,0l0,0" id="svg_4" fill-opacity="0.68" stroke-width="0" stroke="#000" fill="url(#svg_2)"/>
 </g>
</svg>