<svg width="200.00000000000003" height="369.0299999999999" xmlns="http://www.w3.org/2000/svg">
 <defs>
  <linearGradient y2="0" x2="1" y1="0" x1="0" id="svg_3">
   <stop offset="1" stop-color="#fc0000"/>
   <stop offset="1" stop-color="#03ffff"/>
  </linearGradient>
 </defs>
 <metadata id="metadata7">image/svg+xml</metadata>
 <g>
  <title>background</title>
  <rect fill="none" id="canvas_background" height="402" width="582" y="-1" x="-1"/>
 </g>
 <g>
  <title>Layer 1</title>
  <g id="layer1"/>
  <path fill-opacity="0.53" d="m43.027523,87.706421c0,0 0,-0.183487 0,-0.366974c0,-0.183487 0,-0.366974 0,-0.550453c0,-0.366974 0,-0.917435 0,-1.284409c0,-0.183487 0.183487,-0.550461 0.183487,-0.73394c0,-0.366974 0.183487,-0.366974 0.183487,-0.550461c0,-0.183487 0,-0.366974 0,-0.366974c0,-0.183487 0,-0.183487 0.183483,-0.366974c0,0 0,-0.183487 0,-0.366974c0,0 0.084183,0.056252 0.183487,-0.183487c0.14043,-0.339035 0.099174,-0.560272 0.183487,-0.917427c0.094265,-0.399315 0.324818,-0.738853 0.366974,-0.917435c0.094265,-0.399307 0.36697,-0.550453 0.36697,-0.917427c0,0 0.183487,-0.183487 0.183487,-0.366974c0,0 0,0 0,0c0,-0.183487 -0.05246,-0.405815 0.366974,-0.917435c0.164513,-0.200668 0.183487,-0.366966 0.183487,-0.550453c0,0 0.084183,-0.127235 0.183483,-0.366974c0.070217,-0.169518 0.144924,-0.381371 0.366974,-0.917435c0.157009,-0.379051 0.127075,-0.584579 0.366974,-0.917427c0.151726,-0.21051 0.183487,-0.366974 0.36697,-0.550461c0,0 0.183487,-0.183487 0.366974,-0.550461c0,0 0.141331,-0.188393 0.183487,-0.366966c0.094265,-0.399315 0.36697,-0.550461 0.550457,-0.733948c0.183487,-0.183487 0.01796,-0.51825 0.366974,-0.733948c0.156082,-0.096466 0.127075,-0.217613 0.36697,-0.550453c0.151726,-0.21051 0.451157,-0.127235 0.550461,-0.366974c0.070217,-0.169518 0.183487,-0.366974 0.366974,-0.550461c0.183483,-0.183487 0.550457,-0.366974 0.733944,-0.550461c0.183487,-0.183487 0.401096,-0.127075 0.733944,-0.366974c0.210506,-0.151718 0.380939,-0.113258 0.550461,-0.183479c0.239735,-0.099304 0.36697,-0.183487 0.550457,-0.183487c0.183487,0 0.183487,-0.183487 0.183487,-0.183487c0,0.183487 0,0.183487 0.183487,0c0,0 0.550457,-0.366974 0.733944,-0.550461c0.183487,-0.183487 0.564423,-0.296753 0.733944,-0.366974c0.239738,-0.099304 0.494213,-0.451157 0.733944,-0.550453c0.169521,-0.070213 0.197453,-0.113266 0.366974,-0.183487c0.239738,-0.099304 0.296757,-0.197456 0.366974,-0.366974c0.0993,-0.239738 0.36697,-0.366974 0.550457,-0.366974c0,0 0.127235,-0.26767 0.366974,-0.366974c0.169521,-0.070221 0.494205,-0.26767 0.733944,-0.366974c0.169521,-0.070221 0.474457,0.075996 0.733944,-0.183487c0.129738,-0.129738 0.237228,-0.237221 0.366974,-0.366966c0.129745,-0.129745 0.371883,-0.141335 0.550457,-0.183487c0.399315,-0.094269 0.494209,-0.26767 0.733948,-0.366974c0.169518,-0.070213 0.310719,-0.26767 0.550457,-0.366974c0.169521,-0.070221 0.310722,-0.084183 0.550461,-0.183487c0.169518,-0.070213 0.380936,-0.113266 0.550457,-0.183487c0.239738,-0.099304 0.310722,-0.26767 0.550457,-0.366974c0.339039,-0.140434 0.747913,-0.113258 0.917435,-0.183479c0.239735,-0.099304 0.380936,-0.113266 0.550457,-0.183487c0.239738,-0.099304 0.366974,-0.366974 0.550457,-0.366974c0.183487,0 0.310722,-0.26767 0.550461,-0.366974c0.339043,-0.140434 0.494209,-0.084183 0.733948,-0.183487c0.16951,-0.070213 0.366966,-0.183487 0.73394,-0.183487c0.183487,0 0.701607,-0.272705 1.100922,-0.36697c0.178581,-0.042156 0.366966,-0.183487 0.550453,-0.183487c0.183487,0 0.183487,0 0.183487,0c0.183487,-0.183487 0.366974,-0.183487 0.550461,-0.183487c0.183487,0 0.310722,-0.084183 0.550461,-0.183487c0.169518,-0.070217 0.310722,-0.084183 0.550453,-0.183487c0.169518,-0.070221 0.494209,-0.084183 0.733948,-0.183483c0.169518,-0.070217 0.366974,-0.183487 0.550461,-0.183487c0.183487,0 0.380943,-0.113266 0.550461,-0.183487c0.239731,-0.099304 0.366966,-0.183487 0.550453,-0.366974c0.183487,-0.183483 0.366974,-0.183483 0.550461,-0.36697c0,0 0.183487,-0.183487 0.366974,-0.183487c0.183487,0 0.366974,-0.183487 0.366974,-0.183487c0.366966,-0.183487 0.494202,-0.26767 0.73394,-0.366974c0.169518,-0.070217 0.366974,-0.183483 0.550461,-0.183483c0.183487,0 1.228149,-0.634644 1.467888,-0.733948c0.339043,-0.140434 0.334633,-0.272705 0.733948,-0.36697c0.178581,-0.042156 0.310722,-0.26767 0.550461,-0.366974c0.169518,-0.070217 0.420708,-0.237228 0.550453,-0.366974c0.129745,-0.129745 0.56443,-0.113266 0.733948,-0.183483c0.239738,-0.099304 0.420715,-0.237228 0.550461,-0.366974c0.129745,-0.129745 0.366974,-0.183487 0.550453,-0.183487c0,0 0.237228,0.129745 0.366974,0c0.129745,-0.129745 0.183487,-0.183487 0.183487,-0.183487c0.183487,-0.183483 0.366974,-0.183483 0.366974,-0.183483c0.183487,0 0.183487,0 0.183487,0c0,0.183483 0,0.36697 0.183487,0.550457c0,0 0,0.183487 0,0.183487c0,0.183487 0,0.183487 0.183487,0.36697c0,0 0,0 0,0.183487c0,0 0.183487,0 0.183487,0.183487c0,0 0.053741,-0.129738 0.183479,0c0.129745,0.129745 0,0.183487 0.183487,0.366974c0,0 0.053741,0.053741 0.183487,0.183487c0.129745,0.129742 0.053741,0.237225 0.183487,0.36697c0.129745,0.129745 0.053741,0.237228 0.183487,0.366974c0.129745,0.129745 0.183487,0.183487 0.183487,0.183487c0,0 0,0 0,0.183483c0,0 0.113266,0.197453 0.183487,0.366974c0.099304,0.239738 0.053741,0.237228 0.183487,0.366974c0.129745,0.129745 0.183487,0.183487 0.183487,0.183487c0.183487,0 0.237228,0.053738 0.366974,0.183483c0.129745,0.129745 0.183479,0.366974 0.183479,0.366974c0,0 0.183487,0.183487 0.183487,0.183487c0,0 -0.056252,0.084183 0.183487,0.183487c0.169518,0.070217 0.183487,0 0.366974,0.183483c0,0 0.053741,0.053741 0.183487,0.183487c0.129745,0.129745 0.183487,0 0.366974,0c0,0 0,0.183487 0,0.183487c0,0 0,0 0.183487,0c0,0 -0.129745,0.053741 0,0.183487c0.129745,0.129745 0.183487,0.183487 0.183487,0.183487c0.183487,0.183487 0.183487,0.183487 0.183487,0.183487c0,0.183483 0.053741,0.053745 0.183479,0.183483c0.129745,0.129745 0,0.183487 0,0.183487c0,0 0,0 0,0c-0.183479,0 -0.183479,0 -0.183479,0c-0.183487,0 -0.183487,0.183487 -0.366974,0.183487c0,0 -0.366974,0 -0.550461,0c-0.183487,0 -0.366974,0 -0.550461,0c-0.183487,0 -0.310722,0.084183 -0.550453,0.183487c-0.169518,0.070221 -0.366974,0 -0.366974,0c-0.183487,0 -0.183487,0 -0.183487,0c-0.366974,0 -0.366974,0.183487 -0.550461,0.183487c-0.183487,0 -0.183487,0 -0.366974,0c0,0 -0.183487,0 -0.183487,0c-0.183487,0.183487 -0.366966,0.183487 -0.366966,0.183487c-0.183487,0 -0.237228,-0.129745 -0.366974,0c-0.129745,0.129745 -0.183487,0.183487 -0.366974,0.183487c-0.366974,0 -0.310722,0.084183 -0.550461,0.183487c-0.169518,0.070221 -0.366974,0 -0.550453,0c-0.366974,0 -0.494217,0.084183 -0.733948,0.183479c-0.169518,0.070213 -0.366974,0 -0.550461,0c0,0 -0.183487,0.183487 -0.366974,0.183487c0,0 -0.183487,0 -0.366966,0c-0.183487,0 -0.127235,0.084183 -0.366974,0.183487c-0.169518,0.070221 -0.183487,0 -0.366974,0c-0.183487,0 -0.366974,0.183487 -0.366974,0.183487c-0.183487,0 -0.380943,-0.070221 -0.550461,0c-0.239738,0.099304 -0.366966,0.183487 -0.550453,0.366974c0,0 0,0 -0.183487,0c-0.183487,0 -0.494209,0.084183 -0.733948,0.183487c-0.339043,0.140434 -0.310722,0.084183 -0.550461,0.183487c-0.169518,0.070221 -0.310715,0.084183 -0.550453,0.183487c-0.169518,0.070221 -0.550461,0.183487 -0.733948,0.183487c0,0 -0.183487,0.183487 -0.366974,0.183487c-0.183487,0 -0.183487,0.183479 -0.366974,0.183479c-0.183487,0 -0.183487,0.183487 -0.366966,0.183487c-0.183487,0 -0.366974,0.183487 -0.550461,0.183487c-0.183487,0 -0.366974,0.183487 -0.366974,0.183487c-0.183487,0.183487 -0.494209,0.26767 -0.733948,0.366974c-0.169518,0.070221 -0.550453,0.183487 -0.550453,0.183487c-0.183487,0.183487 -0.380943,0.113266 -0.550461,0.183487c-0.239738,0.099304 -0.380943,0.296753 -0.550461,0.366974c-0.239738,0.099304 -0.31073,0.26767 -0.550461,0.366966c-0.16951,0.070213 -0.394897,0.043053 -0.73394,0.183487c-0.239738,0.099304 -0.394905,0.22654 -0.733948,0.366974c-0.239738,0.099304 -0.310722,0.26767 -0.550461,0.366974c-0.339035,0.140434 -0.494202,0.26767 -0.73394,0.366974c-0.169518,0.070221 -0.380939,0.113266 -0.550461,0.183487c-0.239738,0.099304 -0.310722,0.26767 -0.550457,0.366966c-0.169521,0.070213 -0.310722,0.26767 -0.550461,0.366974c-0.169518,0.070213 -0.310719,0.26767 -0.550457,0.366974c-0.169521,0.070221 -0.380939,0.113266 -0.550461,0.183487c-0.239735,0.099304 -0.197449,0.296753 -0.36697,0.366974c-0.239738,0.099304 -0.366974,0.183487 -0.550461,0.366974c-0.183483,0.183487 -0.451153,0.310715 -0.550457,0.550453c-0.070217,0.169518 -0.366974,0.366974 -0.550461,0.550461c-0.183483,0.183487 -0.183483,0.183487 -0.36697,0.366974c-0.183487,0.183487 -0.366974,0.366974 -0.550461,0.550461c-0.183483,0.183487 -0.183483,0.183487 -0.36697,0.366966c-0.183491,0.183487 -0.237228,0.420715 -0.366974,0.550461c-0.129745,0.129745 -0.494205,0.451157 -0.733944,0.550461c-0.169521,0.070221 -0.296757,0.197456 -0.366974,0.366974c-0.099304,0.239738 -0.380936,0.296761 -0.550457,0.366974c-0.239735,0.099297 -0.366974,0.366966 -0.366974,0.366966c-0.183487,0.183487 -0.366974,0.183487 -0.550457,0.366974c-0.183487,0.183487 -0.366974,0.366974 -0.550461,0.550461c-0.183487,0.183487 -0.201443,0.334763 -0.550457,0.550461c-0.156082,0.096466 -0.183487,0.183487 -0.366974,0.183487c0,0 -0.183487,0.183479 -0.183487,0.183479c-0.183483,0.183487 -0.183483,0.183487 -0.36697,0.366974c-0.183487,0.183487 -0.183487,0.183487 -0.366974,0.366974c-0.183487,0.183487 -0.127235,0.26767 -0.366974,0.366974c-0.169518,0.070213 -0.183483,0.183487 -0.36697,0.366974c-0.183487,0.183487 -0.296753,0.197456 -0.366974,0.366974c-0.099304,0.239731 -0.26767,0.127228 -0.36697,0.366966c-0.070217,0.169518 -0.053741,0.420715 -0.183487,0.550461c-0.129745,0.129745 -0.296757,0.380943 -0.366974,0.550461c-0.099304,0.239738 -0.26767,0.310722 -0.366974,0.550461c-0.070213,0.16951 -0.141327,0.371872 -0.183483,0.550453c-0.094265,0.399315 -0.127075,0.584587 -0.366974,0.917435c-0.151726,0.21051 -0.141331,0.37188 -0.183487,0.550461c-0.094265,0.399307 -0.26767,0.494202 -0.36697,0.73394c-0.070217,0.169518 -0.053741,0.237228 -0.183487,0.366974c-0.129745,0.129745 0,0.366974 0,0.550461c0,0 -0.183487,0.183487 -0.183487,0.366974c0,0 -0.183487,0.183479 -0.183487,0.550453c0,0.183487 -0.183487,0.366974 -0.183487,0.550461c0,0.183487 -0.183487,0.366974 -0.183487,0.550461c0,0.183487 -0.183483,0.366974 -0.183483,0.366974c0,0.183479 0,0.183479 0,0.366966c0,0 0,0.183487 0,0.183487c0,0.183487 -0.183487,0.183487 -0.183487,0.366974c0,0 0,0 0,0.183487c0,0.183487 -0.324818,0.738853 -0.366974,0.917427c-0.094265,0.399315 -0.451153,0.677696 -0.550457,0.917435c-0.070217,0.169518 0,0.366974 0,0.366974c0,0.183487 -0.183487,0.183487 -0.183487,0.183487c0,0.183487 0,0.183487 -0.183487,0.183487c0,0 0,0 0,0c-0.183487,-0.183487 -0.26767,-0.310722 -0.36697,-0.550461c-0.070217,-0.169518 -0.26767,-0.310722 -0.366974,-0.550461c-0.070217,-0.169518 -0.183483,-0.366974 -0.366974,-0.550461c-0.183487,-0.183479 -0.237228,-0.237221 -0.36697,-0.366966c-0.129745,-0.129745 -0.053741,-0.237228 -0.183487,-0.366974c-0.129745,-0.129745 -0.237228,-0.053741 -0.366974,-0.183487c-0.129745,-0.129745 -0.183487,-0.183487 -0.183487,-0.183487c0,-0.183487 -0.053738,-0.237228 -0.183483,-0.366974c-0.129745,-0.129745 -0.183487,0 -0.366974,-0.183487c0,0 -0.053741,-0.053741 -0.183487,-0.183487c-0.129738,-0.129738 -0.053741,-0.053734 -0.183487,-0.183479c-0.129745,-0.129745 -0.053741,-0.237228 -0.183487,-0.366974c-0.129745,-0.129745 0,-0.183487 -0.183483,-0.366974c0,0 0,0 0,0c0,0 -0.183487,-0.183487 -0.183487,-0.183487l0,0" id="svg_1" stroke-width="0" stroke="#000" fill="url(#svg_3)"/>
  <path d="m157.032944,90.988968c0,-0.21978 0,-0.21978 0,-0.65934c0,-0.21978 0,-0.43956 0,-0.65934c0,-0.21978 0,-0.21978 0,-0.43956c0,0 0,-0.21978 0,-0.43956c0,-0.21978 0,-0.21978 0,-0.43956c0,0 0,0 0,0c-0.219788,-0.21978 -0.219788,-0.65934 -0.219788,-0.87912c0,-0.65934 0,-1.0989 0,-1.31868c0,-0.21978 0,-0.21978 0,-0.21978c0,0 0,-0.21978 0,-0.21978c0,0 -0.10083,-0.152405 -0.219772,-0.43956c-0.084106,-0.203049 0,-0.43956 0,-0.43956c0,-0.219788 0,-0.219788 0,-0.219788c0,0 0.155411,-0.284149 0,-0.43956c-0.155411,-0.155411 -0.219788,-0.21978 -0.219788,-0.43956c0,-0.21978 0,-0.21978 0,-0.43956c0,-0.21978 -0.10083,-0.372185 -0.219772,-0.65934c-0.084106,-0.203049 0.155411,-0.503929 0,-0.65934c-0.155411,-0.155411 -0.219788,-0.21978 -0.219788,-0.21978c0,0 0.155411,-0.064369 0,-0.21978c-0.155411,-0.155411 -0.43956,-0.43956 -0.43956,-0.43956c0,0 0,-0.43956 0,-0.65934c0,0 0,0 -0.219788,-0.43956c0,0 -0.10083,-0.152405 -0.219772,-0.43956c-0.084106,-0.203049 -0.100845,-0.152397 -0.219788,-0.43956c-0.084106,-0.203049 0,-0.21978 0,-0.21978c0,-0.21978 -0.135666,-0.236511 -0.219772,-0.43956c-0.118942,-0.287163 -0.284164,-0.284157 -0.43956,-0.43956c-0.155411,-0.155411 0,-0.43956 -0.219788,-0.65934c0,0 0,0 0,0c0,-0.21978 -0.219772,-0.21978 -0.219772,-0.43956c0,-0.21978 -0.219788,-0.43956 -0.219788,-0.43956c0,-0.21978 -0.219772,-0.21978 -0.219772,-0.43956c0,0 0,0 0,0c0,-0.21978 0,-0.43956 -0.219788,-0.65934c0,0 0,0 0,0c0,-0.21978 -0.219772,-0.21978 -0.219772,-0.21978c0,-0.21978 -0.064377,-0.503929 -0.219788,-0.65934c-0.155396,-0.155403 -0.219772,-0.21978 -0.219772,-0.21978c-0.219788,-0.21978 -0.320618,-0.152405 -0.43956,-0.43956c-0.084106,-0.203049 -0.219788,-0.21978 -0.43956,-0.43956c0,0 0.155411,-0.064377 0,-0.219788c-0.155411,-0.155411 -0.43956,-0.21978 -0.43956,-0.43956c0,0 -0.219788,0 -0.219788,0c0,0 0,-0.21978 0,-0.21978c-0.219772,0 -0.219772,-0.21978 -0.43956,-0.21978c0,0 -0.219772,-0.21978 -0.219772,-0.21978c0,0 -0.219788,-0.21978 -0.219788,-0.21978c-0.219772,-0.21978 -0.219772,-0.21978 -0.219772,-0.21978c0,0 -0.219788,-0.21978 -0.43956,-0.43956c0,0 -0.219788,0 -0.219788,-0.21978c0,0 0,0 -0.219772,-0.21978c-0.219788,-0.219788 -0.43956,-0.219772 -0.659348,-0.43956c-0.219772,-0.21978 -0.219772,-0.21978 -0.43956,-0.43956c0,0 -0.181198,0.198265 -0.43956,-0.21978c-0.11554,-0.186958 -0.43956,-0.21978 -0.659332,-0.43956c-0.219788,-0.219788 -0.219788,-0.21978 -0.43956,-0.21978c0,0 -0.219788,-0.21978 -0.43956,-0.21978c-0.219788,0 -0.43956,-0.21978 -0.659348,-0.21978c0,0 -0.064362,-0.064369 -0.219772,-0.21978c-0.155411,-0.155411 -0.219788,0 -0.219788,0c0,-0.21978 -0.219788,-0.21978 -0.219788,-0.21978c-0.219772,0 -0.284149,-0.064369 -0.43956,-0.21978c-0.155396,-0.155403 -0.43956,0 -0.659332,-0.21978c0,0 0,0 -0.219788,0c-0.219772,0 -0.152405,-0.320618 -0.43956,-0.43956c-0.406097,-0.168205 -0.43956,-0.21978 -0.659332,-0.21978c0,0 -0.219788,0 -0.219788,-0.21978c0,0 0,0 -0.43956,-0.21978c0,0 -0.43956,0 -0.659332,-0.21978c-0.219788,-0.219788 -0.43956,-0.21978 -0.43956,-0.21978c0,0 -0.219788,-0.21978 -0.219788,-0.21978c-0.219772,0 -0.219772,0 -0.43956,0c0,0 -0.284149,-0.064369 -0.43956,-0.21978c-0.155411,-0.155411 -0.219772,-0.21978 -0.43956,-0.43956c0,0 -0.219772,-0.21978 -0.43956,-0.21978c-0.219772,0 -0.219772,0 -0.219772,-0.21978c0,0 -0.016724,0.084114 -0.219788,0c-0.287155,-0.118942 -0.152405,-0.320618 -0.43956,-0.43956c-0.203049,-0.084099 -0.372177,-0.100838 -0.659332,-0.21978c-0.203064,-0.084114 -0.43956,0 -0.659348,-0.219784c-0.219772,-0.219776 -0.503937,-0.064377 -0.659332,-0.21978c-0.155411,-0.155407 -0.064377,-0.064365 -0.219788,-0.21978c-0.155411,-0.155407 0,-0.21978 0,-0.21978c-0.219772,0 -0.219772,0 -0.219772,0c0,0 0,0 -0.219788,0c0,0 -0.219772,0 -0.43956,0c-0.219772,0 -0.219772,-0.21978 -0.219772,-0.21978c0,0 -0.219788,0 -0.219788,0c-0.219772,0 -0.43956,0 -0.43956,0c-0.219772,-0.21978 -0.219772,-0.21978 -0.219772,-0.21978c-0.219788,0 -0.219788,0 -0.219788,0c-0.219788,0 -0.236511,-0.135677 -0.43956,-0.21978c-0.287155,-0.118942 -0.219788,-0.21978 -0.43956,-0.21978c0,0 0.155411,-0.064373 0,-0.21978c-0.155411,-0.155415 -0.219788,0 -0.43956,-0.21978c0,0 0,0 -0.219788,0c0,0 0,0 0,0c-0.219772,0 -0.219772,0 -0.219772,0c-0.219788,0 -0.219788,0 -0.43956,0c0,0 -0.219788,0 -0.219788,0c0,-0.21978 0,-0.21978 -0.219772,-0.21978c0,0 -0.219788,0 -0.219788,0c0,-0.21978 -0.219772,-0.21978 -0.219772,-0.21978c0,0 0,0 0,0c-0.219788,-0.21978 -0.219788,-0.21978 -0.219788,-0.43956c0,0 -0.219772,0 -0.219772,0c0,-0.21978 0,-0.21978 -0.219788,-0.21978c0,0 0,0 -0.219772,-0.21978c0,0 -0.219788,0 -0.43956,0c0,0 0,-0.21978 -0.219788,-0.21978c0,0 0,0 -0.219772,0c0,0 0,0 -0.219788,0c0,0 0,0 0,0c0,0 -0.219772,0 -0.219772,-0.21978c0,0 0,0 0,0c0,0 -0.219788,-0.21978 -0.219788,-0.21978c0,0 0,0 -0.21978,0c0,0 -0.21978,0 -0.21978,0c0,0 0,0 -0.21978,0c0,0 -0.21978,-0.21978 -0.43956,-0.21978c0,0 -0.21978,0 -0.21978,0c0,-0.21978 0,-0.21978 -0.21978,-0.21978c0,0 -0.21978,0 -0.21978,0c-0.21978,-0.21978 -0.21978,-0.21978 -0.21978,-0.21978c-0.21978,0 -0.21978,-0.219784 -0.21978,-0.219784c-0.21978,0 -0.43956,0 -0.43956,0c0,-0.21978 -0.21978,-0.21978 -0.21978,-0.21978c-0.21978,0 -0.064369,-0.064373 -0.21978,-0.21978c-0.155411,-0.155407 -0.21978,0 -0.21978,0c0,0 -0.21978,0 -0.21978,0c0,-0.21978 0,-0.21978 0,-0.21978c-0.21978,0 -0.21978,0 -0.21978,0c0,0 0,0 0,-0.21978c0,0 0,0 -0.21978,0c0,0 0,0 0,0c0,0 -0.064369,0.155407 -0.21978,0c-0.155411,-0.155407 0,-0.21978 0,-0.21978c0,0 0,0 -0.21978,0c0,0 0,0 0,0.21978c0,0 0,0.21978 0,0.21978c0,0 -0.21978,0.21978 -0.21978,0.21978c0,0 0,0.21978 0,0.21978c-0.21978,0 -0.21978,0.21978 -0.21978,0.21978c0,0 0,0.219784 0,0.219784c-0.21978,0 -0.21978,0.21978 -0.21978,0.21978c0,0 -0.21978,0.21978 -0.21978,0.21978c0,0 0,0.21978 -0.21978,0.21978c0,0 0,0.21978 0,0.21978c-0.21978,0 -0.21978,0.21978 -0.21978,0.21978c0,0 0,0 -0.21978,0.21978c0,0 0,0 -0.21978,0.21978c0,0 0.155411,0.064373 0,0.21978c-0.155411,0.155407 -0.21978,0 -0.21978,0c0,0 0,0.21978 0,0.21978c-0.21978,0 -0.21978,0.21978 -0.21978,0.21978c0,0 -0.21978,0.21978 -0.21978,0.21978c0,0 -0.21978,0 -0.21978,0.21978c0,0 -0.21978,0 -0.21978,0c0,0 0,0 0,0c0,0.21978 0,0.21978 0,0.21978c-0.21978,0 -0.21978,0 -0.21978,0c0,0 0,0 0,0c0.21978,0 0.21978,0 0.21978,0c0,0 0.21978,0 0.21978,0c0,0 0,0 0.21978,0c0,0 0,0 0,0c0.21978,0 0.21978,0 0.21978,0c0,0 0.064369,-0.155407 0.21978,0c0.155411,0.155407 0,0.21978 0,0.21978c0,0 0,0 0.21978,0c0,0 0,0.21978 0,0.21978c0.21978,0 0.064369,0.064373 0.21978,0.21978c0.155411,0.155407 0.284149,-0.155407 0.43956,0c0.155411,0.155407 0,0.21978 0.21978,0.21978c0,0 0.21978,0.21978 0.21978,0.21978c0.21978,0 0.21978,0.21978 0.43956,0.21978c0,0 0,0.21978 0.21978,0.21978c0,0 0.21978,0.21978 0.43956,0.21978c0,0 0.21978,0.219784 0.21978,0.219784c0.21978,0.21978 0.43956,0.21978 0.43956,0.21978c0.21978,0.21978 0.236511,0.135674 0.43956,0.21978c0.287155,0.118942 0.236511,0.135674 0.43956,0.21978c0.287155,0.118942 0.43956,0.21978 0.65934,0.43956c0.21978,0.21978 0.400826,0.326653 0.87912,0.43956c0.213898,0.050491 0.456291,0.135674 0.65934,0.21978c0.287155,0.118942 0.676064,0.355446 0.879128,0.43956c0.287155,0.118942 0.43956,0.21978 0.659332,0.43956c0.219788,0.219788 0.43956,0.21978 0.659348,0.43956c0,0 -0.219788,-0.439568 -0.219788,-0.21978c0,0.219788 0.372192,0.100838 0.659348,0.21978c0.406097,0.168205 0.659332,0.21978 1.098892,0.43956c0,0 0.236511,0.135681 0.43956,0.21978c0.287155,0.118942 0.284149,0.284149 0.43956,0.43956c0.155411,0.155411 0.284164,0.064377 0.43956,0.21978c0.155411,0.155411 0.064377,0.284149 0.219788,0.43956c0.155396,0.155403 0.284149,0.064369 0.43956,0.21978c0.155411,0.155411 0.236511,0.135681 0.43956,0.21978c0.287155,0.118942 0.456284,0.355446 0.659348,0.43956c0.287155,0.118942 0.43956,0.21978 0.659332,0.43956c0.219788,0.219788 0.723709,0.503929 0.87912,0.65934c0.155411,0.155411 0.43956,-0.000008 0.659348,0.21978c0.219772,0.21978 0.43956,0.43956 0.659332,0.65934c0.219788,0.219788 0.152405,0.320618 0.43956,0.43956c0.203064,0.084114 0.372192,0.320618 0.659348,0.43956c0.203049,0.084099 0.692154,0.324005 0.87912,0.43956c0.418045,0.258369 0.659332,0.43956 0.87912,0.659348c0.219772,0.21978 0.43956,0.43956 0.659332,0.65934c0.219788,0.219788 0.760178,0.372185 0.87912,0.65934c0.084106,0.203049 0.355453,0.236511 0.43956,0.43956c0.118942,0.287163 0.43956,0.21978 0.659348,0.43956c0,0 0,0.21978 0,0.21978c0.219772,0 0.236496,0.135666 0.43956,0.21978c0.287155,0.118942 0.43956,0.21978 0.87912,0.65934c0,0 0.219772,-0.000008 0.43956,0.21978c0.219772,0.21978 0.43956,0.43956 0.43956,0.43956c0.219788,0.21978 0.219788,0.21978 0.43956,0.43956c0,0 0.219788,0.21978 0.219788,0.21978c0.219772,0.21978 0.219772,0.219772 0.43956,0.43956c0.219772,0.21978 0.219772,0.21978 0.43956,0.43956c0,0 0.219772,0.21978 0.219772,0.21978c0.219788,0.21978 0.503937,0.284149 0.659348,0.43956c0.155411,0.155411 0.219772,0.43956 0.43956,0.65934c0,0 0.219772,0.21978 0.43956,0.43956c0,0 0.320618,0.152397 0.43956,0.43956c0.084106,0.203049 0.064362,0.503929 0.219772,0.65934c0.155411,0.155411 0.355453,0.456291 0.43956,0.65934c0.118942,0.287163 0.236511,0.355461 0.43956,0.43956c0.287155,0.118942 0.32666,0.400826 0.43956,0.87912c0.050491,0.213898 0.219788,0.43956 0.219788,0.659348c0,0 0.219772,0.21978 0.219772,0.43956c0,0 0.135681,0.236511 0.219788,0.43956c0.118942,0.287155 0.219772,0.65934 0.43956,1.0989c0.219772,0.43956 0.546432,0.620605 0.659332,1.0989c0.100983,0.427803 0.284164,0.503937 0.43956,0.65934c0.155411,0.155411 0,0.21978 0,0.43956c0,0.43956 -0.310822,1.007866 0,1.31868c0.155411,0.155411 0.219788,0.43956 0.219788,0.43956c0,0.21978 0,0.43956 0,0.65934c0,0 0.219772,0.21978 0.219772,0.21978c0,0.21978 0,0.21978 0,0.21978c0,0 0,0 0,-0.21978c0,0 0.064377,-0.064369 0.219788,-0.21978c0.155396,-0.155403 0.445435,-0.169289 0.659332,-0.21978c0.478302,-0.112907 0.659348,-0.21978 0.659348,-0.21978c0.219772,0 0.284149,0.155411 0.43956,0c0.155411,-0.155411 0,-0.21978 0,-0.21978c0.219772,0 0.219772,0 0.43956,0c0,0 0,0 0.219772,0c0,0 0,0 0,0c0,0 0.064377,-0.064369 0.219788,-0.21978c0.310822,-0.310814 0.43956,0 0.87912,0l0,0l0,0l0,0" id="svg_7" fill-opacity="0.53" stroke-opacity="null" stroke-width="0" stroke="#000" fill="none"/>
  <path d="m157.252716,88.791168c0,0 0,0 0,-0.21978c0,-0.21978 0,-0.43956 0,-0.65934c0,-0.21978 0,-0.43956 0,-0.65934c0,0 0,-0.21978 0,-0.43956c0,-0.21978 0,-0.21978 0,-0.43956c0,0 0,0 0,0c0,-0.21978 -0.219772,-0.43956 -0.219772,-0.65934c0,0 0,0 0,-0.43956c0,0 -0.219788,-0.21978 -0.219788,-0.43956c0,-0.219788 0,-0.439568 0,-0.659348c0,-0.21978 0,-0.43956 0,-0.43956c0,0 0,-0.21978 0,-0.43956c0,-0.21978 0,-0.43956 -0.219772,-0.43956c0,0 0,0 0,-0.21978c0,0 0,0 -0.219788,-0.21978c0,0 0,-0.21978 -0.219772,-0.21978c0,0 0,0 0,-0.21978c0,0 0,0 -0.219788,-0.21978c-0.219788,-0.21978 -0.064377,-0.284149 -0.219788,-0.43956c-0.155396,-0.155403 -0.219772,0 -0.219772,-0.21978c0,-0.21978 -0.135681,-0.895851 -0.219788,-1.0989c-0.118942,-0.287155 -0.219772,-0.43956 -0.219772,-0.43956c0,0 0,-0.21978 0,-0.21978c0,-0.21978 0,-0.43956 -0.219788,-0.65934c0,0 -0.064377,-0.284157 -0.219772,-0.43956c-0.155411,-0.155411 -0.064377,-0.284149 -0.219788,-0.43956c-0.155411,-0.155411 -0.219772,-0.43956 -0.219772,-0.43956c0,0 0.084106,-0.016731 0,-0.21978c-0.118942,-0.287163 -0.43956,-0.21978 -0.43956,-0.43956c0,-0.21978 -0.43956,-0.43956 -0.43956,-0.65934c0,0 -0.219788,0 -0.219788,-0.21978c0,-0.21978 -0.219772,-0.21978 -0.219772,-0.43956c0,-0.21978 0,-0.21978 -0.219788,-0.43956c0,0 0.155411,-0.064369 0,-0.21978c-0.155396,-0.155403 -0.284149,-0.284149 -0.43956,-0.43956c-0.155396,-0.155403 -0.219772,-0.21978 -0.43956,-0.21978c-0.219772,0 -0.219772,-0.21978 -0.43956,-0.21978c0,0 -0.219772,-0.21978 -0.43956,-0.43956c0,0 -0.064377,0.155403 -0.219772,0c-0.155411,-0.155411 0,-0.219788 -0.219788,-0.439568c0,0 -0.219772,-0.21978 -0.43956,-0.65934c-0.219772,-0.43956 -0.219772,-0.43956 -0.219772,-0.65934c0,0 -0.219788,0 -0.43956,0c-0.219788,0 -0.236511,0.084099 -0.43956,0c-0.287155,-0.118942 -0.219788,-0.21978 -0.219788,-0.21978c0,0 -0.236496,-0.135666 -0.43956,-0.21978c-0.287155,-0.118942 -0.43956,-0.21978 -0.43956,-0.43956c0,0 -0.219772,0 -0.219772,0c0,-0.21978 -0.135681,-0.236511 -0.219788,-0.43956c-0.118942,-0.287155 -0.54039,-0.372185 -0.659332,-0.65934c-0.084106,-0.203049 -0.219788,-0.21978 -0.219788,-0.43956c0,0 0,0 -0.219772,0c0,0 -0.219788,-0.21978 -0.219788,-0.21978c0,0 -0.219772,0 -0.219772,0c-0.219788,0 -0.152405,-0.100838 -0.43956,-0.21978c-0.203064,-0.084114 -0.236511,0.084099 -0.43956,0c-0.287155,-0.118942 -0.372192,-0.320618 -0.659348,-0.43956c-0.203064,-0.084114 -0.43956,0 -0.659348,-0.21978c0,0 -0.219772,0 -0.219772,0c0,0 -0.181046,-0.326653 -0.659348,-0.43956c-0.213898,-0.050491 -0.503937,-0.064377 -0.659332,-0.21978c-0.155411,-0.155411 -0.236511,-0.135681 -0.43956,-0.21978c-0.287155,-0.118942 -0.43956,-0.21978 -0.659348,-0.21978c0,0 -0.219772,-0.21978 -0.43956,-0.21978c0,0 0,-0.21978 -0.219772,-0.21978c-0.219788,0 -0.43956,-0.21978 -0.659348,-0.21978c0,0 -0.219772,-0.21978 -0.219772,-0.21978c-0.219788,0 -0.284149,-0.064369 -0.43956,-0.21978c-0.155411,-0.155411 -0.43956,-0.21978 -0.659348,-0.21978c0,0 -0.219772,0 -0.43956,-0.21978c0,0 0,0 -0.219772,0c0,0 -0.236511,-0.135681 -0.43956,-0.21978c-0.287155,-0.118942 -0.43956,-0.21978 -0.659348,-0.21978c0,0 0,-0.21978 0,-0.21978c-0.219772,0 -0.43956,0 -0.659332,0c-0.219788,0 -0.456284,-0.135666 -0.659348,-0.21978c-0.287155,-0.118942 -0.219772,-0.21978 -0.219772,-0.21978c-0.219788,0 -0.676071,-0.135681 -0.87912,-0.21978c-0.28717,-0.118942 -0.43956,-0.219784 -0.43956,-0.219784c0,-0.21978 -0.016724,-0.13567 -0.219788,-0.21978c-0.287155,-0.118946 -0.400818,-0.326649 -0.87912,-0.43956c-0.213913,-0.050495 -0.456284,-0.13567 -0.659348,-0.21978c-0.287155,-0.118946 -0.43956,-0.21978 -0.87912,-0.43956c0,0 -0.219772,0 -0.219772,0c0,0 -0.219788,0 -0.219788,0c-0.219772,-0.21978 -0.284149,-0.064365 -0.43956,-0.21978c-0.155411,-0.155407 0,-0.21978 0,-0.21978c0,0 -0.219772,-0.21978 -0.219772,-0.21978c-0.219788,-0.21978 -0.372192,-0.540398 -0.659348,-0.65934c-0.203049,-0.084103 -0.43956,0 -0.43956,0c0,-0.21978 -0.219772,-0.21978 -0.219772,-0.21978c0,0 -0.064377,-0.064373 -0.219788,-0.21978c-0.155396,-0.155403 -0.219772,0 -0.219772,0c0,0 -0.236511,-0.135677 -0.43956,-0.21978c-0.287163,-0.118942 -0.439568,-0.21978 -0.659348,-0.21978c0,0 -0.21978,-0.21978 -0.21978,-0.21978c-0.21978,0 -0.503929,-0.064373 -0.65934,-0.21978c-0.155411,-0.155407 -0.21978,-0.21978 -0.21978,-0.21978c0,0 -0.21978,0 -0.43956,0c-0.21978,0 -0.43956,0 -0.43956,0c-0.21978,0 -0.21978,-0.21978 -0.21978,-0.21978c-0.21978,0 -0.43956,0 -0.43956,-0.21978c0,0 0,0 0,0c-0.21978,0 -0.21978,0 -0.21978,-0.219784c0,0 0,0 0,0c-0.21978,-0.21978 -0.21978,-0.21978 -0.21978,-0.21978c0,0 -0.21978,0 -0.21978,0c0,-0.21978 0,0 0,0c0,0 0,0 0,0.21978c0,0 0,0 -0.21978,0.219784c0,0 -0.064369,0.284153 -0.21978,0.43956c-0.155411,0.155407 -0.21978,0 -0.21978,0c0,0.21978 0,0.21978 -0.21978,0.43956c0,0 0,0.21978 0,0.21978c-0.21978,0 -0.21978,0.21978 -0.21978,0.21978c0,0 -0.21978,0.21978 -0.21978,0.21978c0,0.21978 -0.21978,0.21978 -0.43956,0.43956c0,0 0.155411,0.064373 0,0.21978c-0.155411,0.155407 -0.21978,0 -0.43956,0.21978c0,0 0.155411,0.064373 0,0.21978c-0.155411,0.155407 -0.284149,-0.155407 -0.43956,0c-0.155411,0.155407 -0.21978,0.21978 -0.21978,0.21978c0,0 0.155411,0.064373 0,0.21978c-0.155411,0.155407 -0.43956,0.21978 -0.43956,0.21978c0,0 0,0 0,0c0,0 0.21978,0 0.21978,0c0,0 0,0 0.21978,0c0,0 0,0 0,0c0,0 0.21978,0 0.21978,0c0,0 0,0 0.21978,0c0,0 -0.155411,0.064373 0,0.21978c0.155411,0.155407 0.21978,0 0.21978,0c0.21978,0.21978 0.21978,0.21978 0.21978,0.21978c0.21978,0 0.21978,0 0.21978,0c0,0.21978 0.21978,0.21978 0.21978,0.43956c0,0 0.284149,-0.155407 0.43956,0c0.155411,0.155407 0.21978,0.21978 0.43956,0.43956c0,0 0.21978,0 0.43956,0.219784c0.21978,0.21978 0.372185,0.320618 0.65934,0.43956c0.203049,0.084106 0.21978,0.21978 0.43956,0.21978c0.21978,0 0.65934,0.21978 0.87912,0.21978c0.21978,0 0.591965,0.100838 0.87912,0.21978c0.203049,0.084106 0.43956,0 0.65934,0.21978c0,0 0.21978,0.21978 0.21978,0.21978c0.21978,0 0.372192,0.100838 0.65934,0.21978c0.203064,0.084114 0.43956,0 0.659348,0c0,0 0.219772,0.21978 0.43956,0.21978c0.219772,0 0.43956,0.21978 0.43956,0.21978c0.219772,0 0.219772,0 0.219772,0c0,0 0,0 0.219788,0c0.219772,0 0.665207,0.169281 0.87912,0.21978c0.478302,0.112907 0.676056,0.135666 0.87912,0.21978c0.287155,0.118942 0.503937,0.064377 0.659332,0.21978c0.155411,0.155411 0.43956,0.21978 0.659348,0.43956c0,0 0.236511,-0.084099 0.43956,0c0.287155,0.118942 0.372192,0.320618 0.659348,0.43956c0.203049,0.084099 0.43956,0.21978 0.43956,0.21978c0.219772,0 0.43956,0 0.659332,0.21978c0,0 0.152405,0.100838 0.43956,0.21978c0.203064,0.084114 0.407196,0.03804 0.659348,0.21978c0.398682,0.287346 0.912582,0.051567 1.31868,0.21978c0.287155,0.118942 0.372177,0.320618 0.659332,0.43956c0.203064,0.084114 0.456284,0.135666 0.659348,0.21978c0.287155,0.118942 0.219772,0.21978 0.43956,0.43956c0,0 0,0 0,0c0.219772,0 0.372177,0.100838 0.659332,0.21978c0.203064,0.084114 0.372192,0.320618 0.659348,0.43956c0.203049,0.084099 0.372177,0.320618 0.659332,0.43956c0.203064,0.084114 0.456284,0.135666 0.659348,0.21978c0.287155,0.118942 0.472382,0.32402 0.659332,0.43956c0.418045,0.258369 0.372192,0.540398 0.659348,0.65934c0.203049,0.084099 0.43956,0.21978 0.43956,0.21978c0.219772,0.21978 0.43956,0.21978 0.659332,0.43956c0,0 0.236511,0.135674 0.439575,0.219788c0.287155,0.118942 0.284149,0.284149 0.43956,0.43956c0.155411,0.155411 0.236496,0.355446 0.43956,0.43956c0.287155,0.118942 0.219772,0.43956 0.219772,0.43956c0,0.21978 0.219788,0.21978 0.43956,0.65934c0,0 0.064377,0.284149 0.219788,0.43956c0.155396,0.155403 0.43956,0.21978 0.659332,0.43956c0,0 0.064377,0.284149 0.219788,0.43956c0.155396,0.155403 0.219772,0.21978 0.219772,0.43956c0,0 -0.067566,0.260658 0.219788,0.65934c0.181732,0.252144 0.54039,0.591965 0.659332,0.87912c0.168213,0.406105 0.32666,0.620605 0.43956,1.0989c0.050491,0.213898 0.135681,0.456291 0.219788,0.65934c0.118942,0.287155 0.257813,0.407188 0.43956,0.65934c0.287354,0.398674 0.326645,0.400818 0.43956,0.87912c0.050491,0.213898 0.320618,0.372177 0.43956,0.65934c0.084106,0.203049 0.135666,0.456291 0.219772,0.65934c0.118942,0.287163 0.389069,0.665222 0.43956,0.87912c0.112915,0.478302 0.219788,0.659348 0.43956,1.098907c0.219788,0.43956 0.355453,0.895851 0.43956,1.0989c0.118942,0.287163 0.43956,0.43956 0.43956,0.43956c-0.219772,0 -0.219772,0.21978 -0.219772,0.43956c0,0.43956 0.219772,0.87912 0.219772,1.0989c0,0.21978 0.100845,0.372177 0.219788,0.65934c0.084106,0.203049 0.10083,0.372185 0.219772,0.65934c0.084106,0.203049 0.100845,0.152397 0.219788,0.43956c0.084106,0.203049 -0.084106,0.456291 0,0.65934c0.118942,0.287155 0.135666,0.236511 0.219772,0.43956c0.118942,0.287163 0.219788,0.21978 0.219788,0.43956c0,0 0.219772,0.21978 0.219772,0.21978c0,0 0,0.21978 0.219788,0.21978c0,0 0.219772,0 0.219772,0c0,0.21978 0.219788,0.21978 0.219788,0.21978c0,0 0.219772,0 0.219772,0c0.219788,0 0.219788,0 0.43956,0c0,0 0.219788,0 0.219788,0c0.219772,0 0.219772,0 0.219772,0c0,0 0.219788,0 0.219788,0c0.219788,0 0.219788,0 0.43956,0c0,0 0,0 0,0c0,-0.21978 0.219788,-0.21978 0.219788,-0.21978c0,0 0.219772,0 0.219772,-0.21978c0,0 0,0 0,0c0.219788,-0.21978 0.219788,-0.21978 0.219788,-0.21978c0.219772,-0.21978 0.219772,-0.21978 0.219772,-0.21978c0,0 0,0 0,-0.21978c0,0 0,0 0,-0.21978c0,0 0,-0.21978 0,-0.43956c0,0 0,-0.21978 0,-0.21978c0,-0.21978 0,-0.43956 0,-0.65934c0,0 0,0 0,-0.21978c0,0 0,-0.21978 0,-0.21978c0,0 0,-0.21978 0,-0.21978c0,0 0,0 0,-0.21978c0,0 0,-0.21978 0,-0.21978c0,-0.21978 0,-0.21978 0,-0.21978l0,0l0,-0.21978" id="svg_9" fill-opacity="0.53" stroke-opacity="null" stroke-width="0" stroke="#000" fill="url(#svg_3)"/>
 </g>
</svg>